<?xml version="1.0" encoding="utf-8"?>
<!-- Generator: Adobe Illustrator 18.1.1, SVG Export Plug-In . SVG Version: 6.00 Build 0)  -->
<svg version="1.1" id="Layer_1" xmlns="http://www.w3.org/2000/svg" xmlns:xlink="http://www.w3.org/1999/xlink" x="0px" y="0px"
	 viewBox="0 0 310 120" enable-background="new 0 0 310 120" xml:space="preserve">
<path fill="#FFFFFF" d="M280.5,64.6c-0.9,0-1.8,0-2.7,0.1C274,43,255,26.5,232.2,26.5c-11.6,0-22.3,4.3-30.4,11.4
	c-7-5.4-15.8-8.7-25.4-8.7c-3.8,0-7.4,0.5-10.9,1.4C155.3,13.5,136.6,2,115.2,2C88,2,65.2,20.5,58.6,45.6
	c-5.3-2.7-11.2-4.2-17.6-4.2c-21.4,0-38.8,17.4-38.8,38.8S19.6,119,41,119c1.6,0,3.2-0.1,4.8-0.3v0.3h232.1v-0.1
	c0.9,0.1,1.8,0.1,2.7,0.1c15,0,27.2-12.2,27.2-27.2C307.8,76.8,295.6,64.6,280.5,64.6z"/>
</svg>
