<?xml version="1.0" encoding="utf-8"?>
<!-- Generator: Adobe Illustrator 18.1.1, SVG Export Plug-In . SVG Version: 6.00 Build 0)  -->
<svg version="1.1" id="Layer_1" xmlns="http://www.w3.org/2000/svg" xmlns:xlink="http://www.w3.org/1999/xlink" x="0px" y="0px"
	 viewBox="0 0 386 125" enable-background="new 0 0 386 125" xml:space="preserve">
<path fill="#FFFFFF" d="M364.7,84.6c-4.8,0-9.2,1.8-12.5,4.7c-2.5-13.1-14-23-27.8-23c-1,0-1.9,0-2.8,0.1
	c-3.9-22.6-23.6-39.7-47.3-39.7c-12.1,0-23.1,4.5-31.6,11.8c-7.3-5.6-16.4-9-26.4-9c-3.9,0-7.7,0.5-11.3,1.5
	c-10.6-17.8-30-29.8-52.3-29.8c-28.2,0-52,19.3-58.8,45.3c-5.5-2.8-11.7-4.4-18.2-4.4c-17.5,0-32.3,11.1-37.9,26.6
	c-2.5-0.8-5.2-1.2-8-1.2C14.5,67.6,2.2,80,2.2,95.2s12.3,27.6,27.6,27.6c0.6,0,1.1,0,1.7-0.1v0.1h333.3c10.5,0,19.1-8.5,19.1-19.1
	S375.3,84.6,364.7,84.6z"/>
</svg>
