<?xml version="1.0" encoding="utf-8"?>
<!-- Generator: Adobe Illustrator 18.1.1, SVG Export Plug-In . SVG Version: 6.00 Build 0)  -->
<svg version="1.1" id="Layer_1" xmlns="http://www.w3.org/2000/svg" xmlns:xlink="http://www.w3.org/1999/xlink" x="0px" y="0px"
	 viewBox="0 0 100 100" enable-background="new 0 0 100 100" xml:space="preserve">
<g>
	<path fill="#453E45" d="M19.8,89.2c21.7,16.7,52.7,12.7,69.4-9c16.7-21.7,12.7-52.7-9-69.4c-21.7-16.7-52.8-12.7-69.4,9
		S-1.9,72.5,19.8,89.2L19.8,89.2z"/>
	<path fill="#605F58" d="M49.2,71.2L49.2,71.2L49.2,71.2L49.2,71.2z M35.5,69.3L35.5,69.3L35.5,69.3L35.5,69.3z M35.6,69.3
		C35.5,69.3,35.5,69.3,35.6,69.3C35.5,69.3,35.5,69.3,35.6,69.3L35.6,69.3z M35.6,69.3L35.6,69.3L35.6,69.3L35.6,69.3z M35.6,69.2
		L35.6,69.2L35.6,69.2L35.6,69.2z M76.5,44.3c-0.1,0.2-0.2,0.3-0.4,0.5C76.2,44.6,76.4,44.4,76.5,44.3L76.5,44.3z M76.5,44.2
		L76.5,44.2L76.5,44.2L76.5,44.2z"/>
	<path fill="#575A5E" d="M22.3,69c-0.1,0-0.1,0-0.2,0c-1.6-0.2-2.6-1.4-3-3c-0.2-1.2,0.5-2.6,1.5-3.3c0.7-0.4,1.5-0.6,2.2-0.6
		c0.6,0,1.2,0.1,1.9,0.3l0.3,0.1l0,0c0.2,0.1,0.5,0.2,0.7,0.3c0.4,0.3,0.7,0.8,0.9,1.2c0.8,1.1,0.5,2.9-0.6,3.7
		c-0.2,0.1-0.4,0.2-0.6,0.4l-0.3,0.4l0,0c-0.4,0.4-0.9,0.5-1.5,0.5c-0.2,0-0.3,0-0.5,0l0,0c-0.2,0-0.3-0.1-0.4-0.1
		C22.6,69,22.5,69,22.3,69L22.3,69z M8.3,59.8c-1.1,0-2.1-1.3-1.2-2.4l0.2-0.2c0.3-0.4,0.7-0.6,1.1-0.6c1.1,0,2.1,1.3,1.2,2.4
		l-0.2,0.2C9,59.7,8.6,59.8,8.3,59.8L8.3,59.8z M64.8,52.7c0,0,0.6-0.6,0.7-0.7c0.6-0.5,1.2-0.7,1.8-0.7c2.2,0,4,2.8,2,4.7
		c0.1-0.1,0.1-0.1,0.1-0.1s-0.6,0.6-0.7,0.7c-0.6,0.5-1.2,0.7-1.8,0.7C64.7,57.3,62.9,54.5,64.8,52.7L64.8,52.7L64.8,52.7z
		 M71.3,34.9L71.3,34.9L71.3,34.9c1.3,0,2.5,0.4,3.6,1.2c0,0,0,0,0.1,0l0,0l0,0l0,0l0,0c0.9,0.7,1.6,1.7,2,2.7c1.1,2,1,4.5-0.5,6.5
		c-1.2,1.5-2.9,2.3-4.7,2.3c-1.2,0-2.5-0.4-3.6-1.2c-0.3-0.3-0.6-0.6-0.9-0.9c-2.2-1.8-2.8-4.9-1.5-7.4l0,0l0,0l0,0l0,0
		c0.2-0.3,0.4-0.6,0.6-0.9l0,0C67.7,35.8,69.5,35,71.3,34.9L71.3,34.9L71.3,34.9L71.3,34.9z M17.1,32.5L17.1,32.5L17.1,32.5
		c0.7,0,1.3,0.1,1.9,0.3l0,0c1.2,0.4,2.3,1.3,3,2.4c2.1,2.2,2.8,6,1.4,9.8c-1.5,4.1-4.8,6.9-8.1,6.9c-0.6,0-1.3-0.1-1.9-0.3
		c-0.4-0.2-0.8-0.4-1.2-0.6C9,49.6,7.4,45.4,8.4,41l0,0l0,0c0.1-0.4,0.2-0.9,0.4-1.3l0,0l0,0l0,0l0,0l0,0v-0.1c0-0.1,0-0.1,0.1-0.2
		C10.5,35.2,13.8,32.6,17.1,32.5L17.1,32.5L17.1,32.5L17.1,32.5z M29.9,36.3c-1.8,0-3.5-2.1-2.1-4l0.3-0.4c0.5-0.7,1.2-1,1.8-1
		c1.8,0,3.5,2.1,2.1,4l-0.3,0.4C31.2,36,30.6,36.3,29.9,36.3L29.9,36.3z M35.1,20.4c-1.3,0-2.6-1.6-1.5-2.9l0.3-0.4
		c0.4-0.5,0.9-0.7,1.3-0.7c1.3,0,2.6,1.6,1.5,2.9l-0.3,0.4C36.1,20.2,35.6,20.4,35.1,20.4L35.1,20.4z M73.2,21.4
		c-0.3,0-0.7-0.1-1-0.2c-0.7-0.3-1.4-0.7-1.8-1.3c-2.2-1.7-0.4-4.8,1.8-4.8c0.5,0,0.9,0.1,1.4,0.4c0.2,0.1,0.4,0.2,0.6,0.2
		c1,0.3,1.5,1.3,1.7,2.3c0.1,0.6,0.1,1.2-0.1,1.7C75.3,20.8,74.2,21.4,73.2,21.4L73.2,21.4z M52.5,10.9L52.5,10.9L52.5,10.9
		c5.3,0,9.6,3.7,9.6,8.3l0,0c0,0.9-0.1,1.7-0.4,2.5c0,0.3,0,0.5-0.1,0.8c-0.8,3.8-4.4,6.3-8.6,6.3c-0.7,0-1.4-0.1-2.2-0.2
		c-2.8-0.6-5-2.2-6.4-4.3c-0.9-1.1-1.5-2.5-1.7-3.9l0,0l0,0l0,0l0,0l0,0l0,0c0-0.2,0-0.4,0-0.6l0,0l0,0l0,0l0,0l0,0l0,0l0,0v-0.1
		c0-4.6,4.2-8.3,9.6-8.4l0,0l0,0C52.4,10.9,52.4,10.9,52.5,10.9L52.5,10.9L52.5,10.9L52.5,10.9L52.5,10.9z M55.7,6.4
		c-5.4,0-10.9,0.9-16.1,2.7c0.3,0.7,0.2,1.6-0.4,2.4c-0.6,0.7-1.3,1-2,1c-1,0-2-0.6-2.5-1.5c-3.1,1.4-6,3.1-8.9,5.1
		c1.2,0.8,1.8,2.5,0.7,3.8c-0.4,0.5-1,0.9-1.4,1.3c-0.6,0.7-1.4,1.1-2.2,1.1c-0.6,0-1.1-0.2-1.6-0.6c-0.2-0.2-0.4-0.4-0.6-0.7
		c-0.1-0.2-0.2-0.3-0.3-0.5c-2.2,2-4.2,4.2-6.1,6.6c-5,6.5-8.3,13.8-10,21.2c0.1,0,0.3,0,0.4,0c2,0,3.9,2.3,2.3,4.4
		c-0.6,0.7-1.3,1-2,1c-0.5,0-1.1-0.2-1.5-0.5c-0.4,2.9-0.5,5.7-0.4,8.5C4.7,63.9,6.4,66,8.4,68c2.4,2.3,5,4.3,7.8,5.9
		c0.3-0.4,0.6-0.7,1.1-0.8c0.7-0.3,1.4-0.4,2.2-0.4c0.4,0,0.9,0,1.3,0.1c2.1,0.4,2.7,2.6,2,4c2.9,1,5.9,1.7,9,2
		c-0.4-1.5-0.3-3.1,0.1-4.5c0.4-2.3,1.7-4.5,3.9-5.9c1.7-1.2,3.7-1.7,5.7-1.7c2.9,0,5.7,1.3,7.5,3.6c0.7,1,1.2,2.1,1.5,3.2
		c0.4,1.1,0.6,2.3,0.5,3.4c2.2-0.7,4.4-1.6,6.6-2.6c-0.8-1.3-0.1-3,1.2-3.7c0.5-0.4,1.1-0.6,1.6-0.6c1,0,1.9,0.6,2.5,1.4
		c3.4-2.2,6.6-4.8,9.6-7.8c1.1-1.2,2.2-2.4,3.2-3.6c-1.4-0.7-2.3-2.5-1.1-4.1l0.7-0.9c0.6-0.7,1.3-1,2-1c0.8,0,1.5,0.3,2,0.9
		c2.6-4.1,4.5-8.5,5.8-12.9l-0.3,0.1c-0.2,0-0.4,0.1-0.6,0.1c-0.3,0-0.6,0-0.9-0.1c-0.8-0.1-1.7-0.3-2.3-0.8c-1.9-1.5-2-3.9-0.8-5.8
		c-0.3,0.4-0.4,0.6-0.4,0.6s0.2-0.3,0.2-0.5c0.2-0.9,0.8-1.6,1.5-2.1c0.7-0.6,1.6-0.9,2.5-0.9c1,0,1.9,0.3,2.8,0.8
		c0.5-5.6,0-11.2-1.5-16.4c-0.3-0.2-0.5-0.4-0.8-0.6c-6-4.6-12.8-7.5-19.9-8.8c0,0.5-0.2,0.9-0.6,1.4l-0.2,0.2
		c-0.6,0.7-1.3,1.1-2,1.1c-1.6,0-3.2-1.6-2.8-3.4C57.9,6.5,56.8,6.4,55.7,6.4L55.7,6.4z M50,0.5c-14.8,0-29.3,6.6-39.1,19.2
		C20.6,7.1,35.2,0.5,50,0.5L50,0.5z"/>
	<path fill="#605F58" d="M80.2,10.8C80.2,10.8,80.2,10.9,80.2,10.8C80.2,10.9,80.2,10.8,80.2,10.8L80.2,10.8z"/>
	<path fill="#605F58" d="M80.3,10.9c2.7,2.1,5.2,4.5,7.3,7c12.1,14.1,15.2,33.7,8.3,50.7c2.4-6,3.6-12.3,3.6-18.6
		C99.5,35.2,92.9,20.7,80.3,10.9L80.3,10.9z"/>
	<path fill="#605F58" d="M10.8,19.8C10.8,19.9,10.8,19.9,10.8,19.8C10.8,19.9,10.8,19.9,10.8,19.8L10.8,19.8z"/>
	<path fill="#605F58" d="M10.7,19.9C10.7,20,10.7,20,10.7,19.9C10.7,20,10.7,19.9,10.7,19.9L10.7,19.9z"/>
	<path fill="#605F58" d="M52.6,27.7L52.6,27.7L52.6,27.7L52.6,27.7z M52.7,27.7L52.7,27.7L52.7,27.7L52.7,27.7z M52.8,27.7
		C52.8,27.7,52.7,27.7,52.8,27.7C52.7,27.7,52.8,27.7,52.8,27.7L52.8,27.7z M52.8,27.7L52.8,27.7L52.8,27.7L52.8,27.7z M52.9,27.7
		C52.9,27.7,52.8,27.7,52.9,27.7C52.8,27.7,52.9,27.7,52.9,27.7L52.9,27.7z M52.9,27.7L52.9,27.7L52.9,27.7L52.9,27.7z M53,27.7
		C53,27.7,52.9,27.7,53,27.7C52.9,27.7,53,27.7,53,27.7L53,27.7z M53,27.7L53,27.7L53,27.7L53,27.7z M10.7,20L10.7,20L10.7,20
		L10.7,20z"/>
	<path fill="#605F58" d="M1,43C1,43.1,1,43.1,1,43C1,43.1,1,43.1,1,43L1,43z"/>
	<path fill="#605F58" d="M1,43.1C1,43.1,1,43.2,1,43.1C1,43.2,1,43.1,1,43.1L1,43.1z"/>
	<path fill="#605F58" d="M50,99.5L50,99.5L50,99.5L50,99.5L50,99.5z M19.8,89.2L19.8,89.2L19.8,89.2C19.9,89.2,19.9,89.2,19.8,89.2
		L19.8,89.2L19.8,89.2z M17.4,87.2L17.4,87.2L17.4,87.2L17.4,87.2z M88.9,80.5c-9.8,12.4-24.2,19-38.9,19
		C64.7,99.5,79.1,93,88.9,80.5L88.9,80.5z M89.2,80.2L89.2,80.2C89.2,80.2,89.1,80.2,89.2,80.2C89.1,80.2,89.2,80.2,89.2,80.2
		L89.2,80.2L89.2,80.2z M89.2,80.1L89.2,80.1L89.2,80.1L89.2,80.1z M89.3,80L89.3,80L89.3,80L89.3,80z M95.8,68.8L95.8,68.8
		L95.8,68.8L95.8,68.8z M95.8,68.7L95.8,68.7L95.8,68.7L95.8,68.7z M95.9,68.6C95.9,68.7,95.9,68.7,95.9,68.6
		C95.9,68.7,95.9,68.7,95.9,68.6L95.9,68.6z M22.8,44.4L22.8,44.4L22.8,44.4L22.8,44.4z M22.9,44.1c0,0.1-0.1,0.2-0.1,0.3
		C22.8,44.3,22.9,44.2,22.9,44.1L22.9,44.1z M22.9,44.1L22.9,44.1L22.9,44.1L22.9,44.1z M22.9,44C22.9,44,22.9,44.1,22.9,44
		C22.9,44.1,22.9,44,22.9,44L22.9,44z M22.9,44L22.9,44L22.9,44L22.9,44z M1,43.2c-0.3,2.3-0.5,4.5-0.5,6.8
		c0,13.8,5.8,27.4,16.8,37.1l0,0l0,0l0,0l0,0l0,0C11.1,81.6,6.5,74.9,3.8,67.7l0,0C0.8,59.9-0.2,51.5,1,43.2L1,43.2z"/>
	<path fill="#4C4E51" d="M42.8,20.3L42.8,20.3L42.8,20.3L42.8,20.3z M42.8,20.2L42.8,20.2L42.8,20.2L42.8,20.2z M42.8,20.2
		L42.8,20.2L42.8,20.2L42.8,20.2z M42.8,19.6L42.8,19.6L42.8,19.6L42.8,19.6z M42.8,19.6L42.8,19.6L42.8,19.6L42.8,19.6z M42.8,19.5
		L42.8,19.5L42.8,19.5L42.8,19.5z M42.8,19.3L42.8,19.3L42.8,19.3L42.8,19.3C42.8,19.4,42.8,19.4,42.8,19.3L42.8,19.3z M52,12.4
		c-4.2,0-7.8,2.5-8.6,6.3c-0.4,1.9,0.1,3.9,1.1,5.5c-0.9-1.1-1.5-2.4-1.7-3.9c0.2,1.5,0.8,2.8,1.7,3.9l0,0c1.7,2.2,4.6,3.5,7.9,3.5
		c0.1,0,0.1,0,0.2,0l0,0l0,0l0,0l0,0l0,0l0,0l0,0l0,0l0,0l0,0l0,0l0,0l0,0l0,0l0,0l0,0c4.2-0.2,7.7-2.8,8.8-6.2l0,0l0,0
		c0,0.1,0,0.1,0,0.2c0.3-0.8,0.4-1.6,0.4-2.5c0,0.8-0.1,1.6-0.4,2.3c0.3-4.1-2.9-7.9-7.6-8.9C53.5,12.4,52.7,12.4,52,12.4L52,12.4z
		 M52.4,10.9L52.4,10.9L52.4,10.9L52.4,10.9z M52.5,10.9L52.5,10.9L52.5,10.9L52.5,10.9z M52.5,10.9L52.5,10.9L52.5,10.9L52.5,10.9
		L52.5,10.9z"/>
	<path fill="#4C4E51" d="M8.4,41L8.4,41L8.4,41L8.4,41z M8.8,39.7L8.8,39.7L8.8,39.7L8.8,39.7z M8.8,39.6L8.8,39.6L8.8,39.6
		L8.8,39.6z M8.9,39.4L8.9,39.4C8.9,39.5,8.9,39.5,8.9,39.4L8.9,39.4z M19,32.9c1.2,0.4,2.1,1.2,2.8,2.2c-0.6-0.6-1.3-1.1-2.1-1.3
		c-0.6-0.2-1.3-0.3-1.9-0.3c-3.3,0-6.7,2.7-8.1,6.9C8.2,44.7,9.2,49,12,51c-3.1-1.5-4.6-5.6-3.6-9.8c-1,4.4,0.6,8.6,3.8,10
		C12.1,51.1,12,51.1,12,51c0.2,0.1,0.4,0.2,0.6,0.3c0.6,0.2,1.3,0.3,1.9,0.3c3.3,0,6.8-2.8,8.3-7l0,0l0,0l0,0c0-0.1,0.1-0.2,0.1-0.3
		l0,0l0,0l0,0l0,0l0,0l0,0c1-3.4,0.5-6.7-1.1-9c0.1,0.1,0.1,0.1,0.2,0.2C21.3,34.1,20.3,33.3,19,32.9L19,32.9z M17.1,32.5
		c-3.3,0-6.6,2.7-8.1,6.7C10.5,35.2,13.8,32.6,17.1,32.5L17.1,32.5z M17.1,32.5L17.1,32.5L17.1,32.5L17.1,32.5L17.1,32.5z"/>
	<path fill="#3F3D3C" d="M17.1,32.5L17.1,32.5c-3.3,0-6.6,2.7-8.1,6.7c0,0.1,0,0.1-0.1,0.2v0.1l0,0l0,0l0,0l0,0l0,0
		c-0.2,0.4-0.3,0.9-0.4,1.3l0,0l0,0c-0.9,4.3,0.5,8.3,3.6,9.8c-2.7-2-3.8-6.3-2.3-10.6c1.5-4.1,4.8-6.9,8.1-6.9
		c0.6,0,1.3,0.1,1.9,0.3c0.8,0.3,1.5,0.8,2.1,1.3c-0.7-1-1.7-1.8-2.8-2.2l0,0C18.4,32.7,17.7,32.5,17.1,32.5L17.1,32.5L17.1,32.5
		L17.1,32.5z"/>
	<path fill="#716E65" d="M21.8,35.1c1.6,2.2,2.1,5.6,1.1,9l0,0l0,0l0,0l0,0l0,0l0,0c0,0.1-0.1,0.2-0.1,0.3l0,0l0,0l0,0
		c-1.5,4.2-4.9,7-8.3,7c-0.6,0-1.3-0.1-1.9-0.3c-0.2-0.1-0.4-0.2-0.6-0.3c0.1,0.1,0.2,0.1,0.2,0.2c0.4,0.2,0.8,0.5,1.2,0.6
		c0.6,0.2,1.3,0.3,1.9,0.3c3.3,0,6.7-2.7,8.1-6.9c1.3-3.8,0.6-7.6-1.4-9.8C22,35.2,21.9,35.1,21.8,35.1L21.8,35.1z"/>
	<path fill="#4C4E51" d="M22.9,62.1c-0.8,0-1.5,0.2-2.2,0.6c-1,0.6-1.7,2.1-1.5,3.3c0.3,1.5,1.4,2.7,3,3c0.1,0,0.1,0,0.2,0
		s0.2,0,0.3,0c0.1,0,0.2,0.1,0.4,0.1l0,0c0.2,0,0.3,0,0.5,0c0.6,0,1.1-0.2,1.5-0.5l0,0l0.3-0.3c0.2-0.1,0.4-0.2,0.6-0.4
		c1.1-0.7,1.5-2.6,0.6-3.7c-0.2-0.5-0.4-0.9-0.9-1.2c-0.2-0.1-0.4-0.3-0.7-0.3l0,0l-0.3-0.1C24.1,62.2,23.5,62.1,22.9,62.1
		L22.9,62.1z"/>
	<path fill="#4C4E51" d="M64.9,52.6L64.9,52.6L64.9,52.6L64.9,52.6z M67.3,51.3c-0.6,0-1.2,0.2-1.8,0.7c-0.1,0.1-0.7,0.7-0.7,0.7
		s0,0,0.1-0.1c-2,1.9-0.2,4.7,2,4.7c0.6,0,1.2-0.2,1.8-0.7c0.1-0.1,0.7-0.7,0.7-0.7s0,0-0.1,0.1C71.3,54.1,69.4,51.3,67.3,51.3
		L67.3,51.3z"/>
	<path fill="#AFB1A9" d="M95.8,68.8c-0.4,1-0.9,2.1-1.4,3.1l0,0V72l0,0l0,0c0,0,0,0,0,0.1l0,0c0,0,0,0.1-0.1,0.1l0,0
		c-0.4,0.8-0.8,1.5-1.2,2.2C94.1,72.6,95,70.7,95.8,68.8L95.8,68.8z M95.8,68.7C95.8,68.7,95.8,68.8,95.8,68.7
		C95.8,68.8,95.8,68.7,95.8,68.7L95.8,68.7z M95.9,68.7C95.9,68.7,95.8,68.7,95.9,68.7C95.8,68.7,95.9,68.7,95.9,68.7L95.9,68.7z
		 M95.9,68.6L95.9,68.6L95.9,68.6L95.9,68.6z"/>
	<path fill="#4C4E51" d="M94.2,72.2L94.2,72.2L94.2,72.2L94.2,72.2z M94.3,72.1L94.3,72.1L94.3,72.1L94.3,72.1z M94.3,72.1
		L94.3,72.1L94.3,72.1L94.3,72.1z M94.4,71.9C94.4,72,94.4,72,94.4,71.9C94.4,72,94.4,72,94.4,71.9L94.4,71.9z M73.9,69.2L73.9,69.2
		L73.9,69.2L73.9,69.2z M79.7,65.6c-1.8,0-3.8,1-5.2,2.8c-0.2,0.2-0.4,0.5-0.5,0.8c0.2-0.3,0.3-0.5,0.5-0.8
		C75.9,66.6,77.9,65.6,79.7,65.6c1,0,1.9,0.3,2.7,0.9c0,0,0,0,0.1,0c0,0,0,0-0.1,0C81.6,65.8,80.7,65.6,79.7,65.6L79.7,65.6z
		 M29.6,85.7L29.6,85.7c0.3-0.1,0.5-0.1,0.7-0.1c0.6,0,1.1,0.3,1.5,0.8c0.3,0.1,0.5,0.3,0.8,0.4c1.3,0.9,0.7,3.2-0.9,3.3
		c-0.4,0-0.7,0.1-1.1,0.1c-0.6,0-1.1,0-1.7-0.1c-0.8-0.1-1.2-0.6-1.5-1.1c-1.1-1-0.6-3.3,1.3-3.3c0.1,0,0.1,0,0.2,0
		C29.1,85.7,29.4,85.7,29.6,85.7L29.6,85.7z M72,87.7c-2.1,0-3.7-2.9-1.6-4.5c1.1-0.8,2.1-1.5,3.5-1.8c0.1,0,0.3,0,0.4,0
		c1.9,0,3.2,2.5,1.9,4c-0.7,0.8-1.9,1.8-3,1.9C72.8,87.5,72.4,87.7,72,87.7L72,87.7z M53.9,83.7c-0.5,0-1-0.2-1.4-0.7
		c-0.6-0.7-0.5-2.1,0.4-2.6c0.4-0.2,0.6-0.4,0.9-0.8c0.4-0.5,0.9-0.7,1.4-0.7c1.4,0,2.7,1.6,1.6,3c-0.4,0.6-0.9,1.1-1.6,1.5
		C54.7,83.6,54.3,83.7,53.9,83.7L53.9,83.7z M73.1,74c-0.8-1.8-0.4-4.3,1.2-6.4c1.4-1.8,3.4-2.8,5.2-2.8c0.9,0,1.8,0.3,2.6,0.8
		c0.5,0.4,0.8,0.8,1.1,1.3c0.9,1.2,1.2,2.9,0.8,4.6l0,0l0,0l0,0l0,0c-0.2,1-0.7,2-1.4,2.9l0,0c0,0,0,0.1-0.1,0.1c0,0,0,0,0,0.1
		c-1.4,1.7-3.3,2.7-5.1,2.7l0,0l0,0l0,0l0,0c-0.9,0-1.8-0.3-2.6-0.8c0,0,0,0-0.1-0.1l0,0l0,0l0,0l0,0l0,0l0,0
		C73.8,75.8,73.3,75,73.1,74L73.1,74z M89,56.2c-1.4,0-2.7-1.6-1.6-3l0.7-0.9c0.4-0.5,0.9-0.7,1.4-0.7c1.4,0,2.7,1.6,1.6,3l-0.7,0.9
		C90,56,89.5,56.2,89,56.2L89,56.2z M90.9,39c-0.3,0-0.6-0.1-0.9-0.2c-0.7-0.3-1.2-0.9-1.4-1.6c-0.5-1-0.1-2.5,0.8-3.1
		c0.5-0.3,0.9-0.5,1.4-0.5c0.8,0,1.5,0.4,2.1,1c0.7,0.8,0.7,1.9,0.4,2.8C92.9,38.5,91.9,39,90.9,39L90.9,39z M85.1,16.7
		c1.5,5.3,2,10.8,1.5,16.4c-0.9-0.5-1.8-0.8-2.8-0.8c-0.9,0-1.7,0.3-2.5,0.9c-0.7,0.6-1.3,1.3-1.5,2.1c-0.1,0.2-0.2,0.5-0.2,0.5
		s0.1-0.1,0.4-0.6c-1.3,1.9-1.1,4.4,0.8,5.8c0.7,0.5,1.5,0.8,2.3,0.8c0.3,0.1,0.6,0.1,0.9,0.1c0.2,0,0.4,0,0.6-0.1l0.3-0.1
		c-1.3,4.4-3.2,8.8-5.8,12.9c-0.5-0.5-1.3-0.9-2-0.9s-1.4,0.3-2,1l-0.7,0.9c-1.2,1.6-0.3,3.4,1.1,4.1c-1,1.2-2,2.4-3.2,3.6
		c-3,3-6.2,5.6-9.6,7.8c-0.5-0.8-1.5-1.4-2.5-1.4c-0.6,0-1.1,0.2-1.6,0.6c-1.3,0.7-2,2.4-1.2,3.7c-2.2,1-4.4,1.9-6.6,2.6
		c-0.1,2.2-1.1,4.4-2.9,6.1c-0.4,0.4-0.8,0.7-1.2,1l0,0l0,0c0,0-0.1,0-0.1,0.1c-1.7,1.5-3.7,2-5.7,2l0,0l0,0l0,0l0,0
		c-3,0-5.9-1.3-7.7-3.7l0,0c-0.7-1-1.2-2.1-1.5-3.2c-3.1-0.3-6.1-1-9-2c0.7-1.5,0.2-3.7-2-4c-0.4-0.1-0.9-0.1-1.3-0.1
		c-0.7,0-1.5,0.1-2.2,0.4c-0.5,0.2-0.8,0.5-1.1,0.8c-2.8-1.6-5.4-3.5-7.8-5.9c-2-2-3.8-4.1-5.3-6.4c0.1,2.1,0.3,4.1,0.6,6.1
		c2.8,7.3,7.3,14,13.5,19.4c-4.7-4.1-8.4-8.9-11.2-14.1c3.1,5.2,7.2,10,12.3,13.9c9,6.9,19.7,10.3,30.1,10.3
		c14.9,0,29.5-6.6,39.2-19.3c12.2-15.8,13.3-36.5,4.7-53.1c8.5,14.2,9.4,32,1.9,47.2c0.5-1,1-2.1,1.4-3.1l0,0l0,0l0,0c0,0,0,0,0-0.1
		l0,0l0,0l0,0l0,0l0,0l0,0l0,0l0,0l0,0c6.9-17,3.8-36.7-8.3-50.7c1.2,1.4,2.4,2.9,3.4,4.5C89.2,20.3,87.3,18.4,85.1,16.7L85.1,16.7z
		"/>
	<path fill="#AFB1A9" d="M89.5,79.8C89.5,79.8,89.4,79.8,89.5,79.8C89.4,79.8,89.4,79.9,89.5,79.8C89.4,79.9,89.4,79.9,89.5,79.8
		C89.4,79.8,89.5,79.8,89.5,79.8L89.5,79.8z M89.6,79.7C89.5,79.7,89.5,79.7,89.6,79.7C89.5,79.7,89.5,79.7,89.6,79.7L89.6,79.7z
		 M89.6,79.6L89.6,79.6L89.6,79.6L89.6,79.6z M89.7,79.5L89.7,79.5L89.7,79.5L89.7,79.5z M89.7,79.4C89.7,79.4,89.7,79.5,89.7,79.4
		C89.7,79.5,89.7,79.4,89.7,79.4L89.7,79.4z M89.8,79.3L89.8,79.3L89.8,79.3L89.8,79.3z M89.9,79.2L89.9,79.2L89.9,79.2L89.9,79.2z
		 M90,79.1C90,79.1,89.9,79.2,90,79.1C89.9,79.2,90,79.1,90,79.1L90,79.1z M90,79L90,79L90,79L90,79z M90.2,78.9L90.2,78.9
		L90.2,78.9L90.2,78.9z M90.3,78.7L90.3,78.7L90.3,78.7L90.3,78.7z M92.1,76C92,76,92,76,92.1,76C92,76,92,76,92.1,76L92.1,76z
		 M92.1,75.9L92.1,75.9L92.1,75.9L92.1,75.9z M92.2,75.7L92.2,75.7L92.2,75.7L92.2,75.7z M92.3,75.6L92.3,75.6L92.3,75.6L92.3,75.6z
		 M92.4,75.5L92.4,75.5L92.4,75.5L92.4,75.5z M92.4,75.4L92.4,75.4L92.4,75.4L92.4,75.4z M92.5,75.3L92.5,75.3L92.5,75.3L92.5,75.3z
		 M92.6,75.2C92.6,75.2,92.5,75.2,92.6,75.2C92.5,75.2,92.6,75.2,92.6,75.2L92.6,75.2z M92.6,75.1L92.6,75.1L92.6,75.1L92.6,75.1z
		 M92.7,75L92.7,75L92.7,75L92.7,75z M92.8,74.9C92.7,74.9,92.7,74.9,92.8,74.9C92.7,74.9,92.7,74.9,92.8,74.9L92.8,74.9z
		 M92.8,74.8L92.8,74.8L92.8,74.8L92.8,74.8z M92.9,74.7C92.9,74.7,92.8,74.7,92.9,74.7C92.8,74.7,92.9,74.7,92.9,74.7L92.9,74.7z
		 M93,74.4c0,0.1-0.1,0.1-0.1,0.2C92.9,74.6,93,74.5,93,74.4L93,74.4z"/>
	<path fill="#52514C" d="M89.4,79.8L89.4,79.8L89.4,79.8z"/>
	<path fill="#AFB1A9" d="M89.4,79.9L89.4,79.9L89.4,79.9C89.4,79.9,89.4,80,89.4,79.9L89.4,79.9L89.4,79.9z"/>
	<path fill="#52514C" d="M89.4,79.9L89.4,79.9L89.4,79.9L89.4,79.9z"/>
	<path fill="#AFB1A9" d="M89.3,80C89.3,80,89.3,80.1,89.3,80C89.3,80.1,89.3,80.1,89.3,80C89.3,80.1,89.3,80,89.3,80L89.3,80z
		 M89.3,80L89.3,80L89.3,80L89.3,80L89.3,80z"/>
	<path fill="#52514C" d="M89.3,80L89.3,80C89.3,80.1,89.3,80,89.3,80L89.3,80L89.3,80L89.3,80L89.3,80L89.3,80z"/>
	<path fill="#AFB1A9" d="M89.2,80.1L89.2,80.1L89.2,80.1L89.2,80.1z M89.3,80.1C89.3,80.1,89.2,80.1,89.3,80.1
		C89.2,80.1,89.2,80.1,89.3,80.1C89.2,80.1,89.2,80.1,89.3,80.1L89.3,80.1z"/>
	<path fill="#52514C" d="M50,99.5L50,99.5L50,99.5L50,99.5L50,99.5L50,99.5L50,99.5L50,99.5z M17.3,87.1L17.3,87.1L17.3,87.1
		L17.3,87.1z M17.2,87C17.2,87.1,17.3,87.1,17.2,87C17.3,87.1,17.2,87.1,17.2,87L17.2,87z M89.2,80.1L89.2,80.1
		c-0.1,0.1-0.1,0.1-0.1,0.2l0,0l0,0C89.1,80.2,89.2,80.2,89.2,80.1L89.2,80.1L89.2,80.1L89.2,80.1L89.2,80.1L89.2,80.1L89.2,80.1
		L89.2,80.1L89.2,80.1z"/>
	<path fill="#CDCEC2" d="M1,43.2L1,43.2L1,43.2L1,43.2z M1,43.1L1,43.1L1,43.1L1,43.1z M10.7,20c-5.3,7-8.5,15-9.7,23
		C2.1,34.9,5.3,27,10.7,20L10.7,20z M10.7,20L10.7,20L10.7,20L10.7,20z M10.8,19.9C10.7,19.9,10.7,19.9,10.8,19.9
		C10.7,19.9,10.8,19.9,10.8,19.9L10.8,19.9z M10.9,19.7C10.9,19.8,10.8,19.8,10.9,19.7L10.9,19.7L10.9,19.7
		C10.8,19.8,10.9,19.8,10.9,19.7L10.9,19.7z M80.3,10.9L80.3,10.9L80.3,10.9L80.3,10.9z M80,10.7c0.1,0,0.1,0.1,0.2,0.1l0,0l0,0
		C80.1,10.8,80.1,10.7,80,10.7L80,10.7z M50,0.5c10.5,0,21,3.3,29.9,10.1C71.1,3.8,60.5,0.5,50,0.5L50,0.5z M50,0.5L50,0.5L50,0.5
		L50,0.5L50,0.5z"/>
	<path fill="#656B70" d="M14.8,23.1c-1.2,0-2.3-1.4-1.3-2.6l0.8-1.1c0.3-0.4,0.8-0.6,1.2-0.6c1.2,0,2.3,1.4,1.3,2.6L16,22.5
		C15.6,22.9,15.2,23.1,14.8,23.1L14.8,23.1z M23.4,14.9c-0.8,0-1.7-1-1-1.9c0.2-0.3,0.6-0.4,0.9-0.4c0.8,0,1.7,1,1,1.9
		C24.1,14.7,23.8,14.9,23.4,14.9L23.4,14.9z M41.9,6.4c-0.8,0-1.7-1-1-1.9l0.3-0.4c0.2-0.3,0.6-0.4,0.9-0.4c0.8,0,1.7,1,1,1.9
		L42.8,6C42.5,6.3,42.2,6.4,41.9,6.4L41.9,6.4z M50,0.5L50,0.5c-14.8,0-29.4,6.6-39.1,19.2c0,0,0,0.1-0.1,0.1l0,0c0,0,0,0-0.1,0.1
		l0,0l0,0l0,0l0,0c-5.3,7-8.5,15-9.7,23l0,0l0,0c0,0,0,0,0,0.1l0,0c-1.1,8.3-0.2,16.7,2.8,24.4l0,0c-0.3-2-0.5-4.1-0.6-6.1
		c-0.1-2.8,0-5.5,0.4-8.3c0.5,0.3,1,0.5,1.5,0.5c0.7,0,1.4-0.3,2-1c1.6-2-0.3-4.4-2.3-4.4c-0.1,0-0.3,0-0.4,0
		c1.7-7.4,5-14.7,10-21.2c1.9-2.4,3.9-4.6,6.1-6.6c0.1,0.2,0.2,0.4,0.3,0.5c0.2,0.3,0.4,0.5,0.6,0.7c0.5,0.4,1.1,0.6,1.6,0.6
		c0.8,0,1.6-0.4,2.2-1.1c0.4-0.5,1-0.9,1.4-1.3c1.2-1.3,0.5-3-0.7-3.8c2.8-2,5.8-3.7,8.9-5.1c0.5,0.9,1.5,1.5,2.5,1.5
		c0.7,0,1.4-0.3,2-1c0.6-0.8,0.7-1.7,0.4-2.4c5.3-1.8,10.7-2.7,16.1-2.7c1.1,0,2.2,0,3.3,0.1c-0.4,1.7,1.2,3.4,2.8,3.4
		c0.7,0,1.4-0.3,2-1.1L64,8.6c0.4-0.5,0.5-0.9,0.6-1.4c7.1,1.3,13.9,4.2,19.9,8.8c0.3,0.2,0.5,0.4,0.8,0.6c2.1,1.7,4.1,3.6,5.9,5.6
		c-1-1.5-2.2-3-3.4-4.5c-2.2-2.5-4.6-4.9-7.3-7l0,0c0,0-0.1,0-0.1-0.1l0,0c-0.1,0-0.1-0.1-0.2-0.1c0,0-0.1,0-0.1-0.1
		C71.1,3.8,60.5,0.5,50,0.5L50,0.5L50,0.5z"/>
	<path fill="#5E6266" d="M35.2,16.4c-0.5,0-1,0.2-1.3,0.7l-0.3,0.4c-1,1.4,0.2,2.9,1.5,2.9c0.5,0,1-0.2,1.3-0.7l0.3-0.4
		C37.8,17.9,36.6,16.4,35.2,16.4L35.2,16.4z"/>
	<path fill="#5E6266" d="M89.5,51.6c-0.5,0-1,0.2-1.4,0.7l-0.7,0.9c-1.1,1.4,0.2,3,1.6,3c0.5,0,1-0.2,1.4-0.7l0.7-0.9
		C92.2,53.2,90.9,51.6,89.5,51.6L89.5,51.6z"/>
	<path fill="#5E6266" d="M90.8,33.7c-0.5,0-1,0.1-1.4,0.5c-0.9,0.7-1.3,2.1-0.8,3.1c0.2,0.7,0.6,1.3,1.4,1.6
		c0.3,0.1,0.6,0.1,0.9,0.1c1,0,2-0.6,2.3-1.5c0.3-0.9,0.4-2.1-0.4-2.8C92.3,34.1,91.5,33.7,90.8,33.7L90.8,33.7z"/>
	<path fill="#4C4E51" d="M30,30.9c-0.7,0-1.3,0.3-1.8,1l-0.3,0.4c-1.4,1.9,0.3,4,2.1,4c0.7,0,1.3-0.3,1.8-1l0.3-0.4
		C33.5,33,31.8,30.9,30,30.9L30,30.9z"/>
	<path fill="#4C4E51" d="M72.2,15.2c-2.3,0-4,3.1-1.8,4.8c0.4,0.6,1.1,1,1.8,1.3c0.3,0.1,0.7,0.2,1,0.2c1.1,0,2.1-0.6,2.5-1.7
		c0.2-0.5,0.2-1.1,0.1-1.7c-0.1-1-0.7-2-1.7-2.3c-0.2,0-0.4-0.1-0.6-0.2C73.1,15.3,72.6,15.2,72.2,15.2L72.2,15.2z"/>
	<path fill="#5E6266" d="M30.3,85.6c-0.2,0-0.4,0-0.7,0.1h-0.1c-0.3,0-0.5-0.1-0.8-0.1c-0.1,0-0.1,0-0.2,0c-1.9,0-2.4,2.4-1.3,3.3
		c0.2,0.5,0.7,1,1.5,1.1c0.6,0.1,1.1,0.1,1.7,0.1c0.4,0,0.7,0,1.1-0.1c1.6-0.2,2.2-2.4,0.9-3.3c-0.3-0.2-0.5-0.3-0.8-0.4
		C31.5,85.9,30.9,85.6,30.3,85.6L30.3,85.6z"/>
	<path fill="#5E6266" d="M55.1,78.9c-0.5,0-1,0.2-1.4,0.7c-0.3,0.4-0.5,0.6-0.9,0.8c-0.9,0.5-0.9,1.9-0.4,2.6
		c0.4,0.5,0.9,0.7,1.4,0.7c0.4,0,0.8-0.1,1.2-0.3c0.6-0.4,1.1-0.9,1.6-1.5C57.7,80.5,56.4,78.9,55.1,78.9L55.1,78.9z"/>
	<path fill="#5E6266" d="M74.4,81.4c-0.1,0-0.3,0-0.4,0c-1.4,0.3-2.4,0.9-3.5,1.8c-2.1,1.5-0.5,4.5,1.6,4.5c0.4,0,0.8-0.1,1.2-0.4
		c1.2-0.1,2.3-1,3-1.9C77.6,83.9,76.3,81.4,74.4,81.4L74.4,81.4z"/>
	<path fill="#5E6266" d="M8.3,56.7c-0.4,0-0.8,0.2-1.1,0.6L7,57.5c-0.8,1.1,0.2,2.4,1.2,2.4c0.4,0,0.8-0.2,1.1-0.6l0.2-0.2
		C10.4,58,9.3,56.7,8.3,56.7L8.3,56.7z"/>
	<path fill="#3F3D3C" d="M52.5,10.9L52.5,10.9L52.5,10.9C52.4,10.9,52.4,10.9,52.5,10.9L52.5,10.9L52.5,10.9
		c-5.4,0.1-9.6,3.9-9.7,8.4v0.1l0,0l0,0l0,0l0,0l0,0l0,0l0,0c0,0.2,0,0.4,0,0.6l0,0l0,0l0,0l0,0l0,0l0,0c0.2,1.4,0.8,2.8,1.7,3.9
		c-1-1.7-1.5-3.6-1.1-5.5c0.8-3.8,4.4-6.3,8.6-6.3c0.7,0,1.4,0.1,2.2,0.2c4.7,1,7.9,4.8,7.6,8.9c0.2-0.7,0.4-1.5,0.4-2.3l0,0
		C62.1,14.6,57.8,10.9,52.5,10.9L52.5,10.9L52.5,10.9L52.5,10.9z"/>
	<path fill="#716E65" d="M61.8,21.5c-1.1,3.4-4.5,6-8.8,6.2l0,0l0,0l0,0l0,0l0,0l0,0l0,0l0,0l0,0l0,0l0,0l0,0l0,0l0,0l0,0l0,0
		c-0.1,0-0.1,0-0.2,0c-3.3,0-6.1-1.4-7.9-3.5l0,0c1.3,2.1,3.6,3.7,6.4,4.3c0.7,0.2,1.4,0.2,2.2,0.2c4.2,0,7.8-2.5,8.6-6.3
		c0.1-0.3,0.1-0.5,0.1-0.8C61.8,21.6,61.8,21.5,61.8,21.5L61.8,21.5z"/>
	<path fill="#4C4E51" d="M77.3,77.3L77.3,77.3L77.3,77.3L77.3,77.3L77.3,77.3z M74.7,76.5L74.7,76.5L74.7,76.5L74.7,76.5z
		 M74.6,76.4L74.6,76.4L74.6,76.4L74.6,76.4z M82.4,74.6c-1.4,1.7-3.3,2.7-5.1,2.7C79.1,77.3,81.1,76.4,82.4,74.6L82.4,74.6z
		 M82.6,74.5L82.6,74.5C82.5,74.5,82.5,74.6,82.6,74.5C82.5,74.6,82.5,74.5,82.6,74.5L82.6,74.5L82.6,74.5z M83.9,71.7L83.9,71.7
		L83.9,71.7L83.9,71.7z M83.9,71.7L83.9,71.7L83.9,71.7L83.9,71.7z M79.7,65.6c-1.8,0-3.8,1-5.2,2.8c-0.2,0.2-0.4,0.5-0.5,0.8l0,0
		l0,0c-1,1.7-1.3,3.6-0.8,5.1c0-0.1,0-0.1-0.1-0.2c0.2,0.9,0.7,1.8,1.5,2.4c-0.7-0.6-1.2-1.3-1.4-2.2c0.3,0.6,0.7,1.1,1.2,1.5
		c0.7,0.6,1.6,0.8,2.6,0.8c1.8,0,3.8-1,5.2-2.8c1.7-2.2,2-4.8,1-6.7c0.9,1.2,1.2,2.9,0.8,4.5c0.4-1.7,0.1-3.4-0.8-4.6l0,0
		c-0.2-0.2-0.4-0.5-0.7-0.7c0,0,0,0-0.1,0C81.6,65.8,80.7,65.6,79.7,65.6L79.7,65.6z"/>
	<path fill="#3F3D3C" d="M83.1,67.2c1,1.9,0.7,4.5-1,6.7c-1.4,1.8-3.4,2.8-5.2,2.8c-0.9,0-1.8-0.3-2.6-0.8c-0.5-0.4-0.9-0.9-1.2-1.5
		c0.3,0.9,0.7,1.6,1.4,2.2l0,0l0,0l0,0l0,0l0,0l0,0c0,0,0,0,0.1,0.1c0.8,0.5,1.6,0.8,2.6,0.8l0,0l0,0l0,0c1.8,0,3.7-1,5.1-2.7
		c0,0,0,0,0-0.1c0,0,0-0.1,0.1-0.1l0,0c0.7-0.9,1.1-1.9,1.4-2.9l0,0l0,0l0,0l0,0C84.3,70,84.1,68.3,83.1,67.2L83.1,67.2z"/>
	<path fill="#716E65" d="M79.4,65c-1.8,0-3.8,1-5.2,2.8c-1.6,2-2,4.5-1.2,6.4c0,0.1,0,0.1,0.1,0.2c-0.5-1.6-0.2-3.4,0.8-5.1l0,0l0,0
		c0.2-0.3,0.3-0.5,0.5-0.8c1.4-1.8,3.4-2.8,5.2-2.8c1,0,1.9,0.3,2.7,0.9c0,0,0,0,0.1,0c0.3,0.2,0.5,0.4,0.7,0.7l0,0
		c-0.3-0.5-0.6-1-1.1-1.3C81.3,65.2,80.4,65,79.4,65L79.4,65z"/>
	<path fill="#4C4E51" d="M41,85.6L41,85.6L41,85.6L41,85.6L41,85.6z M46.7,83.9C45,85.1,43,85.6,41,85.6C43,85.6,45,85.1,46.7,83.9
		L46.7,83.9z M46.8,83.8L46.8,83.8L46.8,83.8L46.8,83.8L46.8,83.8L46.8,83.8z M41.5,67.4c-2,0-4,0.6-5.8,1.8l0,0l0,0l0,0l0,0l0,0
		l0,0l0,0l0,0l0,0c-1.9,1.4-3.1,3.3-3.7,5.3c0-0.1,0-0.2,0.1-0.3c-0.4,1.5-0.5,3-0.1,4.5c0.3,1.1,0.8,2.2,1.5,3.2l0,0l0,0
		c-1.7-2.2-2.1-4.9-1.4-7.4l0,0l0,0c-0.3,2.1,0.2,4.3,1.6,6.2c1.8,2.4,4.6,3.6,7.5,3.6c2,0,3.9-0.6,5.7-1.7c3.1-2.1,4.5-5.6,3.9-8.9
		c1,3.2,0.1,6.7-2.5,9.2c1.8-1.7,2.8-3.9,2.9-6.1c0.1-1.2-0.1-2.3-0.5-3.4c0,0.1,0.1,0.2,0.1,0.4c-0.3-0.9-0.7-1.8-1.3-2.6l0,0l0,0
		l0,0C47.4,68.7,44.5,67.4,41.5,67.4L41.5,67.4z"/>
	<path fill="#3F3D3C" d="M50.5,73.7c0.6,3.3-0.8,6.8-3.9,8.9c-1.7,1.2-3.7,1.7-5.7,1.7c-2.9,0-5.7-1.3-7.5-3.6
		c-1.4-1.9-1.9-4.1-1.6-6.2c-0.6,2.5-0.2,5.2,1.4,7.4l0,0c1.8,2.4,4.7,3.7,7.7,3.7l0,0l0,0l0,0c2,0,4-0.6,5.7-1.7c0,0,0.1,0,0.1-0.1
		l0,0l0,0c0.4-0.3,0.9-0.6,1.2-1C50.6,80.4,51.5,76.8,50.5,73.7L50.5,73.7z"/>
	<path fill="#716E65" d="M41.5,66.6c-2,0-3.9,0.6-5.7,1.7c-2.2,1.5-3.5,3.6-3.9,5.9c0,0.1,0,0.2-0.1,0.3c0.5-2,1.7-3.9,3.7-5.3l0,0
		l0,0l0,0l0,0l0,0l0,0l0,0l0,0l0,0c1.8-1.2,3.8-1.8,5.8-1.8c3,0,5.9,1.3,7.7,3.7l0,0l0,0l0,0c0.6,0.8,1,1.7,1.3,2.6
		c0-0.1,0-0.2-0.1-0.4c-0.2-1.1-0.7-2.2-1.5-3.2C47.2,67.9,44.4,66.6,41.5,66.6L41.5,66.6z"/>
	<path fill="#5E6266" d="M23.3,12.6c-0.3,0-0.6,0.1-0.9,0.4c-0.7,0.9,0.1,1.9,1,1.9c0.3,0,0.6-0.1,0.9-0.4
		C25,13.6,24.2,12.6,23.3,12.6L23.3,12.6z"/>
	<path fill="#5E6266" d="M42.1,3.7c-0.3,0-0.6,0.1-0.9,0.4l-0.3,0.4c-0.7,0.9,0.1,1.9,1,1.9c0.3,0,0.6-0.1,0.9-0.4l0.3-0.4
		C43.8,4.7,43,3.7,42.1,3.7L42.1,3.7z"/>
	<path fill="#5E6266" d="M15.4,18.8c-0.4,0-0.8,0.2-1.2,0.6l-0.8,1.1c-0.9,1.2,0.2,2.6,1.3,2.6c0.4,0,0.8-0.2,1.2-0.6l0.8-1.1
		C17.7,20.2,16.6,18.8,15.4,18.8L15.4,18.8z"/>
	<path fill="#4C4E51" d="M65.9,38.3L65.9,38.3L65.9,38.3L65.9,38.3z M65.9,38.2L65.9,38.2L65.9,38.2L65.9,38.2z M74.9,36.2
		L74.9,36.2L74.9,36.2L74.9,36.2z M74.8,36.1C74.8,36.1,74.9,36.1,74.8,36.1C74.9,36.1,74.8,36.1,74.8,36.1L74.8,36.1z M71.9,35.9
		c-1.8,0-3.5,0.8-4.7,2.3c-1.7,2.2-1.6,5.2,0,7.3c-2.1-1.9-2.6-4.8-1.4-7.2c-1.2,2.5-0.6,5.5,1.5,7.4l-0.1-0.1l0.3,0.3
		c1.1,0.9,2.4,1.3,3.7,1.3c1.8,0,3.6-0.8,4.8-2.3l0,0c0.1-0.2,0.2-0.3,0.4-0.5l0,0l0,0c1-1.7,1.1-3.7,0.4-5.4c0,0,0,0.1,0.1,0.1
		c-0.4-1-1-2-2-2.7c0.9,0.7,1.5,1.6,1.9,2.6c-0.4-0.6-0.8-1.2-1.4-1.7C74.4,36.3,73.1,35.9,71.9,35.9L71.9,35.9z M71.3,34.9
		c-1.8,0-3.6,0.8-4.8,2.3C67.7,35.8,69.5,35,71.3,34.9L71.3,34.9z M71.3,34.9L71.3,34.9L71.3,34.9L71.3,34.9L71.3,34.9z"/>
	<path fill="#3F3D3C" d="M71.3,34.9L71.3,34.9c-1.8,0-3.6,0.8-4.8,2.3l0,0c-0.2,0.3-0.4,0.6-0.6,0.9l0,0l0,0l0,0l0,0
		c-1.2,2.4-0.6,5.4,1.4,7.2c-1.6-2.1-1.7-5.1,0-7.3c1.2-1.5,2.9-2.3,4.7-2.3c1.2,0,2.5,0.4,3.6,1.2c0.6,0.5,1.1,1,1.4,1.7
		c-0.4-1-1-1.9-1.9-2.6l0,0l0,0l0,0l0,0c0,0,0,0-0.1,0C73.7,35.3,72.5,35,71.3,34.9L71.3,34.9L71.3,34.9L71.3,34.9z"/>
	<path fill="#716E65" d="M76.9,38.8c0.7,1.7,0.6,3.8-0.4,5.4l0,0l0,0c-0.1,0.2-0.2,0.3-0.4,0.5l0,0c-1.2,1.5-3,2.3-4.8,2.3
		c-1.3,0-2.6-0.4-3.7-1.3l-0.3-0.3l0.1,0.1c0.3,0.3,0.6,0.6,0.9,0.9c1.1,0.8,2.3,1.2,3.6,1.2c1.8,0,3.5-0.8,4.7-2.3
		c1.5-1.9,1.6-4.5,0.5-6.5C77,38.9,76.9,38.8,76.9,38.8L76.9,38.8z"/>
	<path fill="#C2C5BA" d="M50,99.5L50,99.5L50,99.5L50,99.5L50,99.5z M19.9,89.3c9,6.9,19.6,10.2,30,10.2
		C39.4,99.5,28.8,96.2,19.9,89.3L19.9,89.3z M17.4,87.2c0.8,0.7,1.6,1.4,2.4,2C19,88.5,18.2,87.9,17.4,87.2L17.4,87.2z M17.3,87.1
		C17.4,87.1,17.4,87.2,17.3,87.1C17.4,87.2,17.4,87.1,17.3,87.1L17.3,87.1z M89.1,80.3c-0.1,0.1-0.1,0.2-0.2,0.3
		C89,80.4,89,80.4,89.1,80.3L89.1,80.3z M89.3,80.1L89.3,80.1C89.2,80.1,89.3,80.1,89.3,80.1L89.3,80.1L89.3,80.1L89.3,80.1z
		 M89.4,79.9C89.3,80,89.3,80,89.4,79.9C89.3,80,89.3,80,89.4,79.9C89.3,80,89.3,80,89.4,79.9C89.4,80,89.4,79.9,89.4,79.9
		L89.4,79.9z M89.4,79.9L89.4,79.9L89.4,79.9L89.4,79.9L89.4,79.9L89.4,79.9z M94.2,72.2c-1.3,2.6-2.9,5.2-4.8,7.7l0,0l0,0
		c0,0,0,0,0.1-0.1l0,0l0,0c0,0,0,0,0-0.1l0,0l0,0l0,0c0,0,0-0.1,0.1-0.1l0,0c0,0,0-0.1,0.1-0.1l0,0c0,0,0,0,0-0.1l0,0
		c0,0,0-0.1,0.1-0.1l0,0c0-0.1,0.1-0.1,0.1-0.2l0,0L90,79l0,0c0.6-0.9,1.2-1.8,1.8-2.7l0,0c0,0,0-0.1,0.1-0.1l0,0
		c0-0.1,0.1-0.1,0.1-0.2l0,0c0,0,0-0.1,0.1-0.1l0,0c0,0,0,0,0-0.1l0,0c0,0,0-0.1,0.1-0.1l0,0v-0.1l0,0l0,0c0,0,0,0,0-0.1
		c0,0,0,0,0-0.1c0,0,0,0,0-0.1l0,0v-0.1l0,0v-0.1l0,0V75l0,0c0,0,0-0.1,0.1-0.1l0,0c0-0.1,0.1-0.1,0.1-0.2l0,0
		C93.4,73.7,93.8,73,94.2,72.2L94.2,72.2z M94.3,72.1C94.3,72.1,94.3,72.2,94.3,72.1C94.2,72.1,94.3,72.1,94.3,72.1L94.3,72.1z
		 M94.3,72.1L94.3,72.1L94.3,72.1L94.3,72.1z M94.3,72L94.3,72L94.3,72L94.3,72z M94.4,71.9L94.4,71.9L94.4,71.9L94.4,71.9z"/>
	<path fill="#5E6266" d="M92.5,24.7c8.7,16.6,7.5,37.3-4.7,53.1C78,90.4,63.4,97,48.6,97C38,97,27.4,93.6,18.5,86.7
		c-5.1-3.9-9.3-8.6-12.4-13.8c2.7,5.2,6.4,10.1,11.1,14.2l0,0l0,0l0,0l0,0l0,0l0,0l0,0l0,0l0,0l0,0c0.8,0.7,1.6,1.4,2.4,2l0,0
		l0.1,0.1c9,6.9,19.6,10.2,30,10.2l0,0l0,0c14.7,0,29.2-6.5,38.9-19c0.1-0.1,0.1-0.2,0.2-0.3l0.1-0.1c0,0,0-0.1,0.1-0.1l0,0
		c0,0,0,0,0-0.1c0,0,0,0,0.1-0.1l0,0c0,0,0,0,0-0.1l0,0c1.9-2.4,3.4-5,4.8-7.7l0,0c0,0,0-0.1,0.1-0.1l0,0c0,0,0,0,0-0.1l0,0l0,0
		v-0.1l0,0C101.9,56.7,101,38.9,92.5,24.7L92.5,24.7z"/>
</g>
<circle opacity="0.4" fill="#0A303C" cx="50" cy="50" r="49.5"/>
</svg>
