<?xml version="1.0" encoding="utf-8"?>
<!-- Generator: Adobe Illustrator 18.1.1, SVG Export Plug-In . SVG Version: 6.00 Build 0)  -->
<svg version="1.1" id="Layer_1" xmlns="http://www.w3.org/2000/svg" xmlns:xlink="http://www.w3.org/1999/xlink" x="0px" y="0px"
	 viewBox="0 0 890 512" enable-background="new 0 0 890 512" xml:space="preserve">
<g>
	<defs>
		<rect id="SVGID_1_" x="-67" y="-6.9" width="1024" height="518.9"/>
	</defs>
	<clipPath id="SVGID_2_">
		<use xlink:href="#SVGID_1_"  overflow="visible"/>
	</clipPath>
	<g clip-path="url(#SVGID_2_)">
		<g>
			<path fill="#3AAEC7" d="M261.4,824.4c0.7,7.2,0.3,14.7-0.2,22.2c-150.5-69.2-255-221.4-255-398.1c0-10.9,0.4-21.6,1.2-32.3
				c17.9,5.9,23.3,5.8,26.9,22.3c4,24.1-16.1,26.1,16.1,44.2c-6-10-10-22.1-6-34.1c20.1,10,18.1,46.2,32.2,62.3
				c14.1,18.1,30.1,18.1,52.2,28.1c14.1,6,22.2,16.1,34.3,24.1c4,2,26,16,28.1,18.1c20.2,24.1-8.1,42.2,4,70.3
				c4.1,14.1,18.1,16.2,24.1,24.1c4.1,8.1,2,22.2,6,26.2c4.1,6,20.2,16,20.2,18.1c8.1,16,0,20.1,2,36.2
				C249.3,780.2,261.4,800.3,261.4,824.4z"/>
			<path fill="#199DBF" d="M802.2,392.2c-18.1-1.9-46.3-4-38.2-30.2c-6-2-16.1,0-20.2,2c2,12.1-1.9,20.1-6,26.2
				c-10-24.1-26.1-56.3-56.2-64.4c6.1,12,46.2,60.3,7.9,56.3c20.2-14.1-7.9-30.2-20-44.3c-4.1,10.1-28.2,12.1-40.3,18.1
				c-10,6-30.2,28.2-40.2,28.2c-14.1,1.9-28.1-26.2-22-38.2c10-20.1,26-4,44.1,0c2-32.2-4-34.2,18.1-58.3
				c14.1-16.2,42.2-28.2,36.2-50.3c4.1,0,6,0,8.1,2c-2.1,4,2,14,0,22.1c6-2.1,34.1-2.1,40.1-6c10.1-8.1,18.1-34.1,24.1-50.3
				c-24.1-4-1.9-28.1-1.9-44.2c-28.3,12.1-20.2,28.1-38.3,42.2c6,4,10,14,16.1,18.1c-20,42.2-32.1-24.1-56.2,0
				c-31.1-23.8,29.2-95.6,63.1-113c-63.6-51.9-142.2-86.1-228.3-95.4c2.5,3.9,5.4,7.8,10.3,11.4c6,6,24.1,0,26.2,12
				c4,12.1-24.1,28.2-26.2,38.2c-3.9,12.1,10.2,20.1,2.1,34.1c-10.1,18.1-44.3,20.1-64.3,38.2c-14.1,14.1-34.2,32.2-36.2,54.3
				C356,193.1,372,132.8,380,98.7c-6,2.1-12,0-18.1,0c14-32.2-8-32.2-34.2-36.2C311.3,59,304.4,45.2,307,32.2
				c-14.8,5-29.3,10.5-43.4,16.9c4.7,9.5,13.1,18.7,16.8,29.4c-4.1,2.1-14.1,6-18.1,6c-9.5-5.7-15.4-14.9-17.6-26.2
				c-3.8,1.8-7.4,3.7-11,5.8c8,10.1,15.7,21.4,15.7,32.5c-28.1-16-12.1,44.3-46.2,32.2c11.7-15.6,4.4-27.4-5.1-42.8
				c-8.6,5.8-17.1,11.9-25.2,18.3c0,0,0,0.1-0.1,0.1c-19.9,28.1,26.3,94.7,36.3,50.5c28.1,12.1,2.1,22.1-6,34.1c-2,4,0,18.1-2,24.1
				c-2,6-14,2-16.1,12c-2,6,10,40.2,14.1,44.3c16.1,8,36.2-26.2,40.2,14c20.2-6,6.1-32.1,30.1-32.1c-2-12.1-12-20.1-22.1-24.1
				c6.1-8.1,18.1-12.1,26.1-14.1c-1.9,26.2,16.2,10,28.2,18.1c14,10,10,14.1,20,28.1c8.1,12.1,26.2,16.2,18.1,32.2
				c-6,12.1-40.2-10-28.1,22.1c-10,0-20.2,2-30.2,4.1c8.1,44.2-10,42.2-38.2,74.3c-22.1,24.1-42.2,46.3-42.2,78.4
				c-20.1-6-36.2-34.1-66.3-22.1c-24.1,8.1-38.1,56.3-4,70.3c16-24.1,30.2-6,26.2,16.2c6,0,14,1.9,20,1.9
				c0,22.2,12.1,42.2,36.2,40.3c2.1,0,14.1-12.1,24.1-12.1c14.1-2,14.1,6,26.2,10c46.2,10,76.4,38.2,112.6,62.4
				c14.1,10,48.2,14,50.3,36.2c0,10-16.1,22.1-18.1,30.2c-4,10-2,24.1-8.1,34.1c-4,4-22.1,18.1-28.1,24.1
				c-8.1,8.1-12.1,16-18.1,24.1c-12.1,14.1-22.1,26.2-42.2,38.2c-2.4,10.7-8.2,23.5-12.7,37.5c45.5,16,94.4,24.7,145.3,24.7
				c81.8,0,158.2-22.4,223.8-61.4c-21.3-63.3,14.1-126.6-12.7-191.9c-8.1-22.1,10-14-16.1-28.1c-20.2-12.1-14.1-4-36.2-6
				c-30.2-2.1-52.3-18.1-72.3-40.2c-26.2-32.2-10.2-40.3,4-74.4c6-14.1,14.1-28.1,22-42.2c2.1-6,6-26.2,10.2-30.1
				c12-12.1,52.2-20.1,72.3-24.2c8,0,26.1-6,32.1-2c20.1,14.1-1.9,20.1,10.1,36.2c14,16.2,36.2,6,40.1,6c6.1,0,20.2,2.1,32.3,2.1
				C782.1,432.4,808.2,428.3,802.2,392.2z M587.1,215.3c12,1.9,26.1,36.2,28.2,52.2c-6,6-8.1,8.1-16.1,6
				C601.5,253.4,571,229.3,587.1,215.3z M573,253.4c12.1-1.9,10,10.1,8,22.2C562.9,277.6,562.9,267.5,573,253.4z M231.2,201.2
				c-10-6,10.1-42.2,10.1-62.4C257.4,149,243.3,189.2,231.2,201.2z M271.5,183.1c16.1-4,30.2,2,36.2,16
				C295.6,199.2,281.5,191.2,271.5,183.1z M266.2,167.6c8-4,14.1-16.1,20.1-22.1c-10.1-4.1-18.1-10.1-26.2-20.1c4-4,2-8.1,8.1-10
				c22.1-32.2,40.1,30.2,56.2,44.1C314.4,175.6,284.3,159.5,266.2,167.6z M227.9,511.9c8.1-8.1,16.2-8.1,26.2-6
				C284.2,515.9,242,524,227.9,511.9z M508.6,161c6-6,16.2-10.1,26.2-12.1C561,140.9,538.8,187.1,508.6,161z"/>
			<path fill="#3AAEC7" d="M872.5,541.7c-2,9.9-4.6,19.5-7.4,29.2c-22.5-1.1-33.3-6.8-46.9-34c-12-22.1-28.1-68.3-16-88.4
				C839,485.2,823.8,546.5,872.5,541.7z"/>
			<path fill="#3AAEC7" d="M771.5,345.8c-10-10,2.1-45.1,18.1-18.9c2,1.9,2,6,6,4c0-19.8,4-26.5,22.2-16c-2.1,4-2.1,10-4.1,14
				c10.2,6,16.2,14.9,12,25.1C811.8,345.8,779.5,355.8,771.5,345.8z"/>
		</g>
		<g>
			<path fill="#94C722" d="M720.5,108.4c-33.9,17.3-94.2,89.2-63.1,113c24.1-24.1,36.2,42.2,56.2,0c-6-4.1-10-14.1-16.1-18.1
				c18.1-14.1,10-30.2,38.3-42.2c0,16.1-22.2,40.2,1.9,44.2c-6,16.2-14,42.2-24.1,50.3c-6,4-34.1,4-40.1,6c2-8.1-2.1-18.1,0-22.1
				c-2.1-2-4-2-8.1-2c6,22-22.1,34.1-36.2,50.3c-22.1,24.1-16.1,26.1-18.1,58.3c-18.1-4-34.1-20.1-44.1,0
				c-6.1,12.1,7.9,40.2,22,38.2c10.1,0,30.2-22.2,40.2-28.2c12.1-6,36.2-8,40.3-18.1c12,14.1,40.1,30.2,20,44.3
				c38.3,4-1.9-44.3-7.9-56.3c30.2,8.1,46.2,40.3,56.2,64.4c4.1-6,8.1-14.1,6-26.2c4.1-2,14.1-4,20.2-2
				c-8.1,26.1,20.1,28.2,38.2,30.2c6,36.2-20.2,40.3-48.2,38.2c-12.1,0-26.2-2.1-32.3-2.1c-4,0-26.1,10.1-40.1-6
				c-12-16,10-22.1-10.1-36.2c-6-4-24.1,2-32.1,2c-20.2,4-60.3,12.1-72.3,24.2c-4.2,4-8.1,24.1-10.2,30.1c-7.9,14.1-16,28.1-22,42.2
				c-14.2,34.1-30.2,42.2-4,74.4c20,22.1,42.2,38.1,72.3,40.2c22.1,2,16-6,36.2,6c26.1,14.1,8,6,16.1,28.1
				c26.8,65.2-8.6,128.6,12.7,191.9c52.3-31,97.6-72.7,132.9-122.2c-3-31.5,6.6-83.8,47-84c6.6-15.7,12.4-31.7,17.1-48.2
				c-22.5-1.1-33.3-6.8-46.9-34c-12-22.1-28.1-68.3-16-88.4c36.8,36.8,21.6,98.1,70.3,93.2c5.3-24,8.5-48.6,9.5-73.8
				c0.4-6.4,0.5-12.9,0.5-19.4C882.5,311.1,819.4,188.6,720.5,108.4z M825.7,353.9c-13.9-8.1-46.2,1.9-54.2-8.1
				c-10-10,2.1-45.1,18.1-18.9c2,1.9,2,6,6,4c0-19.8,4-26.5,22.2-16c-2.1,4-2.1,10-4.1,14C823.8,334.9,829.8,343.8,825.7,353.9z"/>
			<path fill="#94C722" d="M426.3,673.7c0,10-16.1,22.1-18.1,30.2c-4,10-2,24.1-8.1,34.1c-4,4-22.1,18.1-28.1,24.1
				c-8.1,8.1-12.1,16-18.1,24.1c-12.1,14.1-22.1,26.2-42.2,38.2c-2.4,10.7-8.2,23.5-12.7,37.5c-12.9-4.5-25.6-9.6-37.9-15.3
				c0.5-7.5,1-14.9,0.2-22.2c0-24.1-12.1-44.3-14-68.4c-2-16,6.1-20.1-2-36.2c0-2.1-16.1-12.1-20.2-18.1c-4-4-1.9-18.1-6-26.2
				c-6-8-20-10-24.1-24.1c-12.1-28.1,16.2-46.2-4-70.3c-2-2-24.1-16-28.1-18.1c-12.1-8.1-20.2-18.1-34.3-24.1
				c-22.1-10-38.1-10-52.2-28.1c-14.1-16.2-12.1-52.3-32.2-62.3c-4,12,0,24.1,6,34.1c-32.1-18.1-12.1-20-16.1-44.2
				c-3.6-16.5-9-16.4-26.9-22.3c9.2-126.3,71.9-237.6,165.5-311.7c-19.9,28.1,26.3,94.7,36.3,50.5c28.1,12.1,2.1,22.1-6,34.1
				c-2,4,0,18.1-2,24.1c-2,6-14,2-16.1,12c-2,6,10,40.2,14.1,44.3c16.1,8,36.2-26.2,40.2,14c20.2-6,6.1-32.1,30.1-32.1
				c-2-12.1-12-20.1-22.1-24.1c6.1-8.1,18.1-12.1,26.1-14.1c-1.9,26.2,16.2,10,28.2,18.1c14,10,10,14.1,20,28.1
				c8.1,12.1,26.2,16.2,18.1,32.2c-6,12.1-40.2-10-28.1,22.1c-10,0-20.2,2-30.2,4.1c8.1,44.2-10,42.2-38.2,74.3
				c-22.1,24.1-42.2,46.3-42.2,78.4c-20.1-6-36.2-34.1-66.3-22.1c-24.1,8.1-38.1,56.3-4,70.3c16-24.1,30.2-6,26.2,16.2
				c6,0,14,1.9,20,1.9c0,22.2,12.1,42.2,36.2,40.3c2.1,0,14.1-12.1,24.1-12.1c14.1-2,14.1,6,26.2,10c46.2,10,76.4,38.2,112.6,62.4
				C390.1,647.5,424.2,651.5,426.3,673.7z"/>
			<path fill="#94C722" d="M502.6,74.6c-3.9,12.1,10.2,20.1,2.1,34.1c-10.1,18.1-44.3,20.1-64.3,38.2
				c-14.1,14.1-34.2,32.2-36.2,54.3C356,193.1,372,132.8,380,98.7c-6,2.1-12,0-18.1,0c14-32.2-8-32.2-34.2-36.2
				C311.3,59,304.4,45.2,307,32.2c43.2-14.2,89.3-22,137.3-22c16.2,0,32.1,0.8,47.8,2.7h0.2c2.5,3.9,5.4,7.8,10.3,11.4
				c6,6,24.1,0,26.2,12C532.8,48.4,504.7,64.6,502.6,74.6z"/>
			<path fill="#94C722" d="M615.2,267.5c-6,6-8.1,8.1-16.1,6c2.4-20.1-28.1-44.2-12-58.2C599.1,217.3,613.2,251.5,615.2,267.5z"/>
			<path fill="#94C722" d="M581,275.6c-18.1,1.9-18.1-8.1-8-22.2C585.1,251.5,583.1,263.6,581,275.6z"/>
			<path fill="#94C722" d="M508.6,161c6-6,16.2-10.1,26.2-12.1C561,140.9,538.8,187.1,508.6,161z"/>
			<path fill="#94C722" d="M227.9,511.9c8.1-8.1,16.2-8.1,26.2-6C284.2,515.9,242,524,227.9,511.9z"/>
			<path fill="#94C722" d="M324.5,159.5c-10.1,16.2-40.1,0-58.3,8.1c8-4,14.1-16.1,20.1-22.1c-10.1-4.1-18.1-10.1-26.2-20.1
				c4-4,2-8.1,8.1-10C290.3,83.1,308.4,145.5,324.5,159.5z"/>
			<path fill="#94C722" d="M307.7,199.2c-12.1,0-26.2-8-36.2-16C287.6,179.1,301.7,185.2,307.7,199.2z"/>
			<path fill="#94C722" d="M231.2,201.2c-10-6,10.1-42.2,10.1-62.4C257.4,149,243.3,189.2,231.2,201.2z"/>
			<path fill="#94C722" d="M249.3,96.6c-28.1-16-12.1,44.3-46.2,32.2c11.7-15.6,4.4-27.4-5.1-42.8c11.4-7.9,23.4-15.2,35.6-21.8
				C241.7,74.3,249.3,85.6,249.3,96.6z"/>
			<path fill="#94C722" d="M280.3,78.6c-4.1,2.1-14.1,6-18.1,6c-9.5-5.7-15.4-14.9-17.6-26.2c6.2-3.3,12.6-6.3,18.9-9.3
				C268.3,58.6,276.7,67.8,280.3,78.6z"/>
		</g>
		<path opacity="0.3" fill="#0D3C4B" d="M751.7,134.3c48,154.3,3.3,339.2-129.8,472.2c-149.4,149.4-364,187.4-527.4,107.9
			C174.7,819.9,301.6,888,444.4,888c242.7,0,439.5-196.8,439.5-439.5C883.8,325.4,833.2,214.1,751.7,134.3z"/>
	</g>
</g>
</svg>
