<?xml version="1.0" encoding="utf-8"?>
<!-- Generator: Adobe Illustrator 18.1.1, SVG Export Plug-In . SVG Version: 6.00 Build 0)  -->
<svg version="1.1" id="Layer_1" xmlns="http://www.w3.org/2000/svg" xmlns:xlink="http://www.w3.org/1999/xlink" x="0px" y="0px"
	 viewBox="289 19 446 719" enable-background="new 289 19 446 719" xml:space="preserve">
<g>
	<g id="XMLID_86_">
		<path fill="#506F72" d="M508.7,292.1c0.7,5.6-0.4,11,4.5,12.3c7.3,2,8.1-6.9,18.2-10.3c6.9-2.3,16.9,3,14.2,15.3
			c4.4-6.3,16.3-6.6,17.3,3.1c9.8-9.1,23-4.2,25.9,3.4c3.6,9.3,7.4,18.1,16.1,14.3c8.8-3.8,20-10.7,26.2,0.6
			c-0.8-20.4,22.4-18.1,29.3-9.6c6.3,7.7,1.7,22-3.6,26.5c15.7-10.3,22.3,6.7,18.7,14.3c-5.9,12.4-17,70.7-42.3,53.9
			c-9-6-48.8,1.6-67.6,3.7c-26,2.9-52.1,6.8-78.2,7.6c-22.6,0.7-46.1,5.1-68.7,7.6c-9.6,1.1-19.1,1-28.6,2.1
			c-11.4,1.3-22.4,1.2-33.7,1c-10.5-0.2,13.4-74.1,3.8-78c-12-4.9-2.1-19,4.2-17.8c-8.2-2.4-12.9-12-11.7-20.2
			c1.6-11,8.1-21.1,20.7-26.7c15.2-6.8,32.6,0.8,26.2,15.7c11.7-8.5,13.6,1.4,22.5-0.6c6.2-1.4,8.6-4.2,9.8-8.6
			c-26.9-14.8,8.6-53.4,28.7-29.4c5.1-8.6,24-5.2,19.4,13.7c6.4-8.4,17.8-11.3,25.6-1.6C507.6,286.7,508.3,289.4,508.7,292.1z"/>
		<path fill="#2A525B" d="M652.1,364.7c-2,4.4-38,6.9-35.3,13.4c-9.1-5.4-30.9-40.1-30-19.7c-6.2-11.3,10.4-24.5,1.7-20.7
			c-8.8,3.8-12.6-5-16.1-14.3c-2.9-7.6-16.1-12.5-25.9-3.4c-1-9.8-12.9-9.4-17.3-3.1c2.7-12.3-7.3-17.6-14.2-15.3
			c-10.2,3.4-10.9,12.3-18.2,10.3c-4.9-1.4-3.8-6.7-4.5-12.3c4.5-5.7,12.5-7.8,17-2.1c1.4-4.1,6.2-6.6,11.5-3.2
			c-14.8-18.5,14.6-31,19.7-15.8c2.8-2.4,6.5-3.4,10.2-1.4c-7.1-21.3,14.8-37.7,35.9-34.3c15.9,2.6,23.1,18.1,15.5,29.2
			c13.4-9.4,26,9.7,15,17.2c6.4-2.1,10.6,5,6.8,9.2c6.7,0.8,10.4,8.5,7.4,13.7C626.9,327.5,657.8,352.2,652.1,364.7z"/>
	</g>
	<g>
		<path fill="#D73B48" d="M571.6,296.3c1.4-4.9,4.3-15.2,1.3-15.9c-3.2-0.7-10.3,3.6-15.3,9.2c-5.1,5.6-7.7,11.4-7.9,13.5
			s3.5,4.7,6.6,6c3,1.3,7.8,2.7,9.5,1.9C567.8,310.1,570.6,299.9,571.6,296.3z"/>
		<g id="XMLID_85_">
			<path fill="#C03441" d="M572.9,280.3c3,0.7,0,11-1.3,15.9c-0.9,3.3-3.2,11.7-5.2,14.2c-0.3-1-1.7-2.4-3.7-3.7
				c3.2-4.9,6-11.2,8.1-17c1.9-5.4,2.3-8.2,1.9-9.4C572.8,280.3,572.9,280.3,572.9,280.3z"/>
		</g>
		<path fill="#D73B48" d="M613.3,313.2c2.4-4.5,7.4-14,10-12.4c2.8,1.7,5,9.7,4.7,17.2c-0.2,7.6-2.3,13.6-3.6,15.3
			c-1.3,1.7-5.8,1-8.9-0.2c-3.1-1.1-7.5-3.5-8.2-5.1C606.5,325.8,611.5,316.6,613.3,313.2z"/>
		<g id="XMLID_84_">
			<path fill="#C03441" d="M624.9,308.7c-0.3-5-1.8-7.3-2.8-8c0.4-0.2,0.9-0.2,1.2,0c2.8,1.7,5,9.7,4.7,17.2
				c-0.2,7.6-2.3,13.6-3.6,15.3c0,0.1-0.1,0.1-0.1,0.1c-0.2-0.9-1.2-2.2-3.5-3.5C623.9,321.9,625.3,316.2,624.9,308.7z"/>
		</g>
		<path fill="#D73B48" d="M630.5,205.7c-4.1-0.5-26.5,11.5-35.6,32.1s-14.2,61.4-12.3,73.7c0.7,2.3,9.4,6.5,13.3,4.6
			c10.1-10.1,33.1-41.9,40-64.4C641,235.1,636.9,206.5,630.5,205.7z"/>
		<path fill="#D77C6A" d="M558.2,296.2c1.4-3.5,5.9-10.4,8.7-12.5c3.6-2.7,3.7-0.7,2,0.9S557.3,298.3,558.2,296.2z"/>
		<path fill="#D77C6A" d="M615.7,319.8c-0.8,0.2,2.5-10.8,4-14.2c1.2-2.7,3-2.1,1.8,0.5C618.9,312.3,616.3,319.7,615.7,319.8z"/>
		<path fill="#D77C6A" d="M586.1,291c-0.6,2.8-1.3,14.3-1.3,17.2c1.1,0.1,2.6,0.2,3.4,0.5C587.1,304.1,586.3,297.5,586.1,291z"/>
		<g id="XMLID_83_">
			<path fill="#B3303D" d="M630.6,205.7c6.3,1.1,10.3,29.5,5.2,46c-6.9,22.5-29.8,54.3-40,64.4h-0.1c0.1-0.6-1-1.6-2.6-2.6
				c4.5-5.8,9.3-12.5,16.4-24.6c16.3-27.4,21.7-49.2,23.6-66.8C634.4,211.7,632.6,207.3,630.6,205.7z"/>
		</g>
		<g id="XMLID_82_">
			<path fill="#B34F5C" d="M634.3,209.8c4,8.6,5.6,29,1.6,41.9c-6.9,22.5-29.8,54.3-40,64.4h-0.1c0-0.3-0.1-0.6-0.5-0.9
				c11.5-10.3,34.3-46.9,39.1-62.6C639.3,237.1,637,219.6,634.3,209.8z"/>
		</g>
		<path fill="#D77C6A" d="M628.5,208.4c-5,2-18.1,10-26.5,22.9s-12.7,35.3-14.6,49.7c3.6-13.8,8.4-32.1,17.7-47.8
			C610.1,224.7,619.6,215.5,628.5,208.4z"/>
		<g id="XMLID_76_">
			<path fill="#C03441" d="M618.5,304.3c-2,2.8-3.9,6.5-5.2,8.9c-0.7,1.4-2.1,3.8-3.3,6.3c-4.4-4.4-9.9-5.8-12.6-5
				c2.8-3,6.3-7.3,10.1-12.3c0.5,1.1,1.7,2.7,3.6,3.5C613.4,306.8,616.1,305.8,618.5,304.3z"/>
			<path fill="#C03441" d="M582.8,292.6c-0.6,6.6-0.8,12.4-0.5,16.4c-1.4-2.6-6.5-6-12.8-5.9c0.9-2.6,1.6-5.3,2-6.8
				c0.7-2.6,1.9-6.6,2.4-10c0.7,2.7,2,5.3,4.3,6.1C580.4,293.1,581.8,292.9,582.8,292.6z"/>
			<path fill="#C03441" d="M626.6,328.2c-0.7,2.5-1.5,4.2-2.1,5c-1.3,1.7-5.8,1-8.9-0.2c-3.1-1.1-7.5-3.5-8.2-5.1
				c-0.4-1,0.4-3.4,1.6-6.1C615.5,320.2,624.2,324.3,626.6,328.2z"/>
			<g id="XMLID_81_">
				<path fill="#B02F3C" d="M626.6,328.2c-0.7,2.5-1.5,4.2-2.1,5c0,0.1-0.1,0.1-0.1,0.1c-0.2-0.9-1.2-2.2-3.5-3.5
					c0.7-1.9,1.4-3.6,1.9-5.3C624.4,325.7,625.8,327,626.6,328.2z"/>
			</g>
			<g id="XMLID_80_">
				<path fill="#B02F3C" d="M615.3,309.6c-0.7,1.3-1.4,2.6-2,3.6c-0.7,1.4-2.1,3.8-3.3,6.3c-4.4-4.4-9.9-5.8-12.6-5
					c1.7-1.8,3.6-4,5.7-6.6c-0.6,1.6-0.8,3.5,0.4,4.7C605.2,314.3,611.1,312.4,615.3,309.6z"/>
				<path fill="#D73B48" d="M611.2,305.8c2.3,1,5,0,7.3-1.4c-0.4,0.5-0.7,1.1-1.1,1.7c-1.9,0.8-4.6,1.3-7.1,0.5
					c-1.8-0.6-3.1-1.9-3.8-2.8c0.4-0.5,0.7-0.9,1.1-1.4C608,303.4,609.2,304.9,611.2,305.8z"/>
				<path fill="#B02F3C" d="M582.3,300.7c-0.1,3.2-0.1,6,0,8.3c-1.4-2.6-6.5-6-12.8-5.9c0.9-2.6,1.6-5.3,2-6.8s1-3.5,1.5-5.6
					c0.1,3.3,1.4,9.6,4.9,11.6C580.4,303.7,581.6,302.5,582.3,300.7z"/>
				<path fill="#D73B48" d="M578.3,292.4c2.1,0.7,3.5,0.5,4.6,0.2c-0.1,0.6-0.1,1.2-0.2,1.8c-1.4,0.3-3.1-0.1-5-0.9
					c-2.3-0.9-3.6-4.1-3.9-6.2c0.1-0.4,0.1-0.7,0.2-1.1C574.6,288.9,575.9,291.5,578.3,292.4z"/>
			</g>
			<g id="XMLID_79_">
				<path fill="#9A2835" d="M610.4,318.8c-0.1,0.2-0.2,0.5-0.4,0.7c-4.4-4.4-9.9-5.8-12.6-5c0.3-0.3,0.5-0.6,0.8-0.9
					C600.5,313.6,605.2,314.4,610.4,318.8z"/>
				<path fill="#9A2835" d="M582.3,307.9c0,0.4,0,0.8,0.1,1.1c-1.4-2.6-6.5-6-12.8-5.9c0.1-0.3,0.2-0.6,0.3-0.9
					C571.6,302.1,578.5,303.2,582.3,307.9z"/>
			</g>
			<g id="XMLID_78_">
				<path fill="#B34F5C" d="M628.1,318c-0.2,7.6-2.3,13.6-3.6,15.3c0,0.1-0.1,0.1-0.1,0.1c-0.1-0.3-0.2-0.7-0.5-1.1
					c2.6-4.9,3.4-9.8,3.5-15.7c0.1-5.7-1.2-11.9-2.9-15C626.6,304.4,628.2,311.4,628.1,318z"/>
			</g>
			<path fill="#C03441" d="M621,231.6c8.2,3.2,13.7,7.7,16.3,14c0,0.3-0.1,0.6-0.1,0.8c-2.6-6.5-8-11.1-16.3-14.4
				c-8.6-3.4-17.9-3.5-21.7-2.1c0.1-0.2,0.2-0.4,0.4-0.5C603.5,228.2,612.6,228.4,621,231.6z"/>
			<path fill="#9A2835" d="M583.3,287.7c2.6-0.8,9-0.1,14.6,2.1c6,2.4,10.6,6,12.4,8.7c-0.4,0.5-0.8,1.1-1.1,1.6
				c-1.7-2.7-5.7-6.3-11.6-8.6c-5.4-2.1-11.7-2.6-14.4-1.8C583.2,289,583.3,288.3,583.3,287.7z"/>
			<path fill="#A62C39" d="M595.8,316.1c-3.9,1.8-12.5-2.4-13.2-4.7c0.5-0.7,2.5-1.1,6.9,0.3C592.5,312.8,596,315.1,595.8,316.1z"/>
			<path fill="#C03441" d="M568.8,305.5c-1,2.8-2.1,5.1-3,5.5c-1.7,0.8-6.4-0.6-9.5-1.9c-3-1.3-6.8-3.9-6.6-6c0.1-1,0.8-2.8,2-5.1
				C556.1,296.8,565.2,299.7,568.8,305.5z"/>
			<path fill="#B02F3C" d="M566.4,310.4c0.8-1,1.6-2.8,2.3-4.9c-0.8-1.3-2-2.5-3.3-3.6c-0.9,1.7-1.8,3.3-2.8,4.7
				C564.7,308,566.2,309.4,566.4,310.4z"/>
			<g id="XMLID_77_">
				<path fill="#B34F5C" d="M573.8,281.1c1.3,2.6-1,10.9-2.2,15.1c-0.9,3.3-3.2,11.7-5.2,14.2c-0.1-0.3-0.3-0.7-0.6-1.1
					c2.9-4.3,5.9-15.9,6.9-20.1C573.5,286,573.9,282.9,573.8,281.1z"/>
			</g>
		</g>
		<g id="XMLID_75_">
			<path fill="#A62C39" d="M624.3,333.4c-1.4,1.5-5.7,0.8-8.8-0.3c-3.1-1.1-7.5-3.5-8.2-5.1c-0.1-0.2-0.1-0.5-0.1-0.9
				c1.5-0.9,6.3-0.3,9.9,1.1C622.2,330.2,624,332.2,624.3,333.4z"/>
			<path fill="#A62C39" d="M566.4,310.4c-0.2,0.3-0.5,0.5-0.7,0.6c-1.7,0.8-6.4-0.6-9.5-1.9c-2.9-1.3-6.6-3.7-6.6-5.8
				c1.1-0.7,3.7-0.9,8.8,1.1C562.1,305.8,566,308.8,566.4,310.4z"/>
		</g>
		<path fill="#80212E" d="M594.3,315.7c-0.2,0.6-2.9,0.2-5.8-0.9c-2.9-1.1-4.8-2.4-4.6-2.9c0.2-0.6,2.7-0.2,5.6,0.9
			C592.4,313.9,594.5,315.2,594.3,315.7z"/>
		<path fill="#80212E" d="M564.5,309.9c-0.3,0.7-3.8,0-7.5-1.6s-6.1-3.5-5.8-4.2s3.6,0,7.2,1.6C562,307.3,564.8,309.1,564.5,309.9z"
			/>
		<path fill="#80212E" d="M609.1,328c-0.3,0.7,2.8,2.6,6.6,4s6.9,1.7,7.1,1c0.3-0.7-2.6-2.5-6.4-3.8
			C612.6,327.8,609.3,327.3,609.1,328z"/>
		<circle fill="#A43542" cx="613.4" cy="249.6" r="10.1"/>
		<circle fill="#E6D44B" cx="613.6" cy="248.8" r="10.1"/>
		<g id="XMLID_74_">
			<path fill="#671926" d="M620.5,331c-1.7,0.5-6.1-0.8-8.6-3.1c1.3,0.2,2.8,0.7,4.5,1.3C618,329.7,619.4,330.4,620.5,331z"/>
			<path fill="#671926" d="M592.7,314.3c-2.6,0.1-5.8-1.3-6.5-2.4c0.9,0.2,2.1,0.5,3.3,1C590.8,313.3,591.9,313.8,592.7,314.3z"/>
			<path fill="#671926" d="M562.5,307.8c-3.5-0.1-7.5-2.1-8.4-3.7c1.2,0.3,2.7,0.8,4.3,1.5C560,306.4,561.4,307.1,562.5,307.8z"/>
		</g>
		<circle fill="#CDAB44" cx="613.6" cy="248.8" r="8.8"/>
		<circle fill="#CDB7C4" cx="613.6" cy="248.8" r="8"/>
		<path fill="#AB98A5" d="M615.5,241c-4.3-1.1-8.6,1.5-9.6,5.8c0,0.2-0.1,0.3-0.1,0.5c1.3-4,5.4-6.3,9.5-5.3s6.6,5,5.9,9.1
			c0.1-0.2,0.1-0.3,0.1-0.5C622.4,246.4,619.8,242.1,615.5,241z"/>
		<path fill="#E6F2FF" d="M611.1,243.7c-1.9,0.7-3.4,2.3-3.9,4.3c-0.6,2.9,0.7,3.2,1.9,2.8c0.7-0.2,7.3-2.7,8.3-3.1
			c1.7-0.8,0.9-2.1-0.2-3.1C615.9,243.5,613.5,242.8,611.1,243.7z"/>
		<path fill="#E6F2FF" d="M610,251.9c-0.6,0.4-1.4,1.1-0.1,1.7c1.1,0.4,3.3-0.6,4.8-1.2c2.3-1,3.2-1.3,3.9-1.7
			c1.3-0.9,0.8-2.3-0.3-1.9c-1.5,0.5-3.2,1.2-4.4,1.7C612.7,250.8,610.6,251.5,610,251.9z"/>
		<path fill="#E6F2FF" d="M612.5,254.2c-0.6,0.2-0.8,0.7,0.1,1c0.7,0.3,2.5,0.1,3.6-0.4c1.2-0.6,1.9-1.1,2.4-1.7
			c0.7-0.8,0.4-1.5-0.3-1.2c-1.1,0.4-2.2,0.9-3.1,1.2C614.4,253.4,612.9,254,612.5,254.2z"/>
		<circle fill="#A43542" cx="605" cy="270.3" r="7.3"/>
		<circle fill="#E6D44B" cx="605.4" cy="269.5" r="7.3"/>
		<circle fill="#CDAB44" cx="605.4" cy="269.5" r="6.2"/>
		<circle fill="#CDB7C4" cx="605.4" cy="269.5" r="5.3"/>
		<path fill="#AB98A5" d="M606.7,264.3c-2.9-0.7-5.8,1-6.5,3.9c0,0.1,0,0.2-0.1,0.3c0.8-2.7,3.6-4.2,6.4-3.6c2.7,0.7,4.5,3.4,4,6.1
			c0-0.1,0.1-0.2,0.1-0.3C611.3,267.9,609.5,265,606.7,264.3z"/>
		<path fill="#E6F2FF" d="M603.8,266.1c-1.3,0.5-2.4,1.6-2.7,3.1c-0.4,2,0.7,2.6,1.5,2.3c0.5-0.2,5-1.9,5.7-2.2
			c1.2-0.5,0.5-1.8-0.3-2.5C607.1,266,605.5,265.5,603.8,266.1z"/>
		<path fill="#E6F2FF" d="M603.4,272.3c-0.5,0.2-0.6,0.8,0.2,1.1c0.6,0.3,2.2,0.4,3.4-0.1c1.1-0.4,1.6-0.9,2-1.7
			c0.4-0.8,0.1-1.6-0.6-1.3c-0.9,0.3-1.9,0.8-2.7,1C605,271.7,603.8,272.2,603.4,272.3z"/>
	</g>
	<g>
		<g id="XMLID_73_">
			<path fill="#B1DCF2" d="M457.6,169.8c-0.5-0.4-1.1-0.8-1.8-1.1c-4-2-23.7-5-29.3,3.5c-3.4,5.1-13.2,37.5-14.9,47.3
				c-1.6,9.7-2.5,16.3,0.4,18.7c0.1,0.1,0.3,0.2,0.6,0.3c-10.5-0.7-19.4-5.1-22.4-8s-4.7-16.2-2.4-19c3.6-4.5,9.5-5,11.4-7.5
				c3.1-4.1,5.2-12.3,4.9-14.7c-0.3-2.4-3.5-7-2.9-11.4s1-11.3,5.8-13.7c3.6-1.8,16.2-3.7,30.2-2.8
				C448.9,162.3,454.9,166.6,457.6,169.8z"/>
			<path fill="#7796A6" d="M457.6,169.8c1.4,1.2,1.9,2.8,2,5.8c0.2,4.1-3.7,37.9-4.6,44.6c-0.9,6.6-0.4,11.2-8.2,14
				c-7.5,2.6-29.4,6.1-34.1,4.4c-0.2-0.1-0.4-0.2-0.6-0.3c-3-2.4-2.1-9-0.4-18.7c1.7-9.8,11.5-42.2,14.9-47.3
				c5.6-8.5,25.2-5.5,29.3-3.5C456.5,169.1,457.1,169.4,457.6,169.8z"/>
		</g>
		<g>
			<g id="XMLID_72_">
				<path fill="#D73B48" d="M569.5,84.5c1.2,5,3.9,10.5,8,18.1c-11.6-6-21.6-2.4-29.8-1.4c-7.1,0.8-6.6-10.2-6.6-15.8
					c0.2,0,0.4,0,0.6,0.1c9.9,1.1,8.7,5.5,7.2,7.5c5-4.6,2-17.2,0.8-28.9c-0.1-0.7-0.2-1.5-0.3-2.4
					C559.1,63.6,566.1,70.2,569.5,84.5z"/>
				<path fill="#D73B48" d="M549.5,61.6c0.1,0.9,0.2,1.7,0.3,2.4c1.3,11.7,4.2,24.2-0.8,28.9c1.4-1.9,2.7-6.4-7.2-7.5
					c-0.2,0-0.4,0-0.6-0.1c-9.1-0.9-38.2-1.2-52.5,8.8c0-13.6,1.9-14.9,3.4-24.2c3.7-22.8-10-21.7-14.5-39.4
					c5.9,3.9,13.4,8,24.2,7.5s36.2-5.7,44.2,4.6C547.6,44.7,548.8,55.3,549.5,61.6z"/>
			</g>
			<g id="XMLID_71_">
				<path fill="#B3303D" d="M504,64.3c9.6,9.6,16.4,14.2,28.7,20.7c-12.7-0.1-32.9,1.4-44.1,9.2c0-13.6,1.9-14.9,3.4-24.2
					c3.7-22.8-10-21.7-14.5-39.4c5.2,3.4,11.7,7.1,20.7,7.5C495.7,44,494.6,54.9,504,64.3z"/>
			</g>
			<g id="XMLID_70_">
				<path fill="#B3303D" d="M555.5,85.4c1.9,7.2,6.4,11.1,9.7,13.8c-6.5-0.3-12.3,1.3-17.5,1.9c-0.4,0-0.7,0.1-1.1,0
					c-4.6-1.7,0.7-6.7,2.3-8.3c5-4.6,2-17.2,0.8-28.9c-0.1-0.7-0.2-1.5-0.3-2.4c3.2,0.7,6.1,1.9,8.7,3.7
					C555.7,68.4,552.9,75.8,555.5,85.4z"/>
				<path fill="#962C3B" d="M541.7,85.4c9.9,1.1,8.7,5.5,7.2,7.5c-1.6,1.6-6.9,6.6-2.3,8.3c-6-0.4-5.5-10.5-5.6-15.8
					C541.3,85.3,541.5,85.4,541.7,85.4z"/>
			</g>
			<path fill="#BBC9C5" d="M524,305.8c-4.4-22.2-47.9-268.9-49.8-279.1c0.3-2.6,2.4-2.7,3.4-0.3c2.7,15.7,51.1,272.9,52.3,278.5
				C529,307.2,524.4,307,524,305.8z"/>
			<g id="XMLID_69_">
				<path fill="#92A8A1" d="M477.6,26.4c2.7,15.7,51.1,272.9,52.3,278.5c-0.2,0.6-0.7,1-1.2,1.3L476.6,25
					C477,25.3,477.4,25.8,477.6,26.4z"/>
			</g>
			<g id="XMLID_68_">
				<path fill="#6F807A" d="M511.5,207.5c-2.1-0.5-3.9,0.5-4.8,1.9c-2.3-12.8-4.6-26.1-7-39.5c1.2-1,2.8-1.5,4.6-1.2
					C506.6,181.8,509.1,194.9,511.5,207.5z"/>
			</g>
			<g>
				<path fill="#FF3359" d="M475.1,32.5c-0.1,0-0.2,0-0.2-0.1c-0.2-0.1-0.3-0.4-0.1-0.6c0.5-0.8,1.4-1.3,2.4-1.4
					c0.8,0,1.7,0.2,2,0.7c0.1,0.2,0.1,0.4-0.1,0.6c-0.2,0.1-0.4,0.1-0.6-0.1c-0.1-0.2-0.6-0.4-1.3-0.3c-0.4,0-1.3,0.2-1.7,1
					C475.3,32.4,475.2,32.5,475.1,32.5z"/>
			</g>
			<g>
				<path fill="#FF3359" d="M486,94.5c-0.1,0-0.2,0-0.2-0.1c-0.2-0.1-0.2-0.4-0.1-0.6c0.5-0.9,1.5-1.4,2.7-1.5
					c0.8-0.1,1.8,0,2.2,0.5c0.2,0.2,0.2,0.4,0,0.6s-0.4,0.1-0.6,0c-0.1-0.2-0.8-0.3-1.6-0.2c-0.4,0-1.6,0.3-2.1,1.2
					C486.2,94.4,486.1,94.5,486,94.5z"/>
			</g>
		</g>
		<g>
			<g id="XMLID_67_">
				<path fill="#B1DCF2" d="M510.2,175.1c0.8,0.6,1.4,3,0.8,4.8c0.5,0.8,0.9,3,0.1,4.2c0.5,1.6,0.6,3.1-0.9,4.7
					c0.2-1.8-6.2-2-6.7,0.6c-2.4-0.1-4.2-1.8-2.6-3.9c-1.6-0.3-2.5-2-2.1-3.8c1.8-0.9,0.6-7.3-0.3-8.3c0,0,0-0.1-0.1-0.1
					c1.2-2.3,4.5-3.3,7.1-2.9C508.2,170.8,510.7,172.1,510.2,175.1z"/>
				<path fill="#E5F6FF" d="M498.6,181.6c-0.1,0-0.1,0.1-0.2,0.1c-2,0.4-3.7-2.8-3.9-7.4c1.3-1.3,3-1.7,3.8-1c0,0,0.1,0,0.1,0.1
					C499.2,174.3,500.4,180.7,498.6,181.6z"/>
				<path fill="#B1DCF2" d="M498.6,181.6c-0.4,1.7,0.5,3.4,2.1,3.8c-1.6,2.2,0.3,3.8,2.6,3.9c0.4-2.6,6.8-2.4,6.7-0.6
					c-2,3.1-7,4-9.1,4.5c0.1,1,0.1,1.9-0.2,3.1c-2.2,1.6-6.4,4-11.3,5.8c-0.6-0.3-1.1-0.7-1.6-1.1c-3.2-2.9-4.7-8.4-5-12
					c-0.1-1-0.1-1.9,0-2.5c0.9-0.5,7.4-3,8.8-3.5c0.7,0.2,1.3,0.3,2.1,0.7c-0.7-2.1-1.1-6.6,0.1-8.5c0.2-0.3,0.4-0.6,0.7-0.9
					c0.2,4.6,1.9,7.8,3.9,7.4C498.5,181.7,498.6,181.6,498.6,181.6z"/>
				<path fill="#B1DCF2" d="M487.8,200.9c-2.5,1-6.4,2.5-11.4,3c-9.7,1.1-18.7-10.2-23.3-17.6s-1.9-10.3,0.2-11.6
					c1.7-1,5.5-0.5,7.5,2.7s10.5,13.4,13.7,13.3c1.4,0,5-0.8,8.2-1.9C483.1,192.5,484.6,198,487.8,200.9z"/>
			</g>
			<g id="XMLID_66_">
				<path fill="#7796A6" d="M509.3,183.8c-4.7-1.3-7.6,0.8-8.6,1.5c-0.2,0-0.3-0.1-0.5-0.2C503.3,182.1,507,182.4,509.3,183.8z"/>
				<path fill="#7796A6" d="M508.2,179.7c-4-1.2-7.8,0.2-8.9,1c0.1-0.3,0.2-0.6,0.2-0.9C502.1,178.2,506.4,178,508.2,179.7z"/>
				<path fill="#7796A6" d="M499.2,175.9c0.5-0.5,1.3-1.1,2.4-1.4c1.4-0.4,4.1-0.5,6.2,0.5c-2.5-0.2-6.1-0.1-8.4,1.8
					C499.3,176.4,499.3,176.1,499.2,175.9z"/>
			</g>
			<g id="XMLID_65_">
				<path fill="#8FC9E6" d="M500.8,185.4c-1.6,2.2,0.3,3.8,2.6,3.9c0.4-2.6,6.8-2.4,6.7-0.6c-2,3.1-7,4-9.1,4.5v0.1
					c-2.9-0.8-4.5-2.8-4.1-5.3c-1.6-0.2-2.8-2.5-3.1-4.3c-0.7-2.1-1.1-6.6,0.1-8.5c0.2-0.3,0.4-0.6,0.7-0.9c0.2,4.6,1.9,7.8,3.9,7.4
					c0.1,0,0.2,0,0.2-0.1c-0.2,1,0,2,0.5,2.7c-0.1,1-0.6,2.4-1.6,3c1.3-0.3,2-1.2,2.4-2.3C500.2,185.2,500.5,185.3,500.8,185.4z"/>
				<path fill="#7796A6" d="M501,193.3c0.1,1,0.1,1.8-0.2,2.9c-6.2-1.7-8.7-10.6-9-13.2c0.7,0.2,1.2,0.3,2,0.7
					c0.3,1.8,1.5,4.1,3.1,4.3C496.4,190.5,498,192.5,501,193.3z"/>
				<path fill="#7796A6" d="M500,185c-0.3,1.1-1,2-2.4,2.3c0.9-0.6,1.4-2,1.6-3C499.4,184.6,499.7,184.9,500,185z"/>
			</g>
			<g id="XMLID_64_">
				<path fill="#7796A6" d="M482.8,189c0.3,3.6,1.8,9.1,5,12c-0.6,0.2-1.2,0.5-2,0.8c-3.4-3.7-4-9.6-3.9-12.4
					C482.2,189.2,482.5,189.1,482.8,189z"/>
				<path fill="#8FC9E6" d="M485.8,201.7c-2.4,0.9-5.6,1.8-9.4,2.3c-3.5,0.4-6.8-0.8-9.9-2.8c9.3-0.9,8.4-7.2,6.8-10.6
					c0.5,0.2,0.9,0.4,1.3,0.3c1.2,0,4.3-0.7,7.3-1.6C481.9,192.1,482.4,198,485.8,201.7z"/>
				<path fill="#FFEB3E" d="M461.3,178.2c0.8,1.2,2.1,2.9,3.7,4.7c-2.8,0.4-7.1,2.2-10,6.4c-0.7-1-1.3-1.9-1.8-2.8
					c-0.4-0.6-0.8-1.3-1.1-1.8C454.4,179.9,458.6,178.3,461.3,178.2z"/>
				<path fill="#F2D235" d="M461.3,178.2c-2.7,0.2-6.8,1.7-9.2,6.4c-3.1-6-0.7-8.6,1.3-9.8c1.7-1,5.5-0.5,7.5,2.7
					C461,177.7,461.1,177.9,461.3,178.2z"/>
			</g>
		</g>
		<g>
			<path fill="#B1DCF2" d="M448.2,171.5c-4.7-0.2-15.9-1-20.2,7.1s-12,31.8-12.5,51.7s13.4,23.3,30.9,21.1
				c16.1-2.1,17.9-9.9,17.1-22.6s-3-35.5-2.3-43C462,177.6,461.1,171.9,448.2,171.5z"/>
			<path fill="#E5F6FF" d="M443.5,207.6c-2.6,4.9-12.8,19.4-20.3,23.5c5.4,2.1,15.6,11.5,19.2,17.4c1.9,1.1,6.8,0.5,8.4-0.8
				c0.8-11,4.7-15,10.9-19.9c-0.8-10.6-3.6-17.9-5.7-20.2c-1.7-0.1-3.4-0.2-5.3-0.3c1.8,18.9-0.8,31.3-3.1,38.3
				c2.6-8.7,3.7-30.1,1.6-38.3C447.5,207.3,445.6,207.4,443.5,207.6z"/>
		</g>
		<g>
			<g id="XMLID_62_">
				<path fill="#8FC9E6" d="M439.5,197.3c-0.8-2,0.8-12.8,1.8-13.8c0,0,0.1-0.1,0.2-0.1c0.7-0.4,2.3-0.6,4.2-0.6
					c3,0,6.7,0.3,9.3,0.7c1.3,0.2,2.3,0.4,2.8,0.6c0.1,0,0.2,0.1,0.2,0.1c0.8,0.6,1.1,10.7-0.1,13.3c-0.1,0.1-0.1,0.2-0.2,0.3
					c-0.3,0.4-1.1,0.7-2.2,0.8c-3.1,0.5-8.5,0.3-12.2-0.2c-2-0.3-3.5-0.6-3.8-1C439.5,197.4,439.5,197.3,439.5,197.3z"/>
				<path fill="#8FC9E6" d="M455.8,168.7c0.7,0.4,1.3,0.7,1.8,1.1l0,0c4.5,3.9,2.6,10.8,0.3,14.2c-0.5-0.2-1.5-0.4-2.8-0.6
					c1.5-3.9,2.5-11.3-0.6-15.2C455,168.4,455.4,168.5,455.8,168.7z"/>
				<path fill="#8FC9E6" d="M439.6,197.4c0.3,0.4,1.8,0.7,3.8,1c-1.1,4.8-10.9,28.2-33.2,32.1c0.2-3,0.7-6.7,1.5-11
					c0.1-0.7,0.3-1.6,0.5-2.6c15.8-1.5,24.9-14.9,27.3-19.7C439.5,197.3,439.5,197.4,439.6,197.4z"/>
				<path fill="#8FC9E6" d="M457.9,197.5c2.5,3.2,7,8.2,5.4,27.5c-1.1-11.3-4.4-21-7.8-26.3c1.1-0.2,2-0.5,2.2-0.8
					C457.8,197.7,457.9,197.6,457.9,197.5z"/>
				<path fill="#8FC9E6" d="M445.7,182.7c-2,0-3.6,0.2-4.2,0.6c-1.4-3-7.7-9.7-13.7-12.6c1.9-1.9,4.6-3,7.6-3.6
					C441.6,170.6,445,178.9,445.7,182.7z"/>
				<g id="XMLID_63_">
					<path fill="#94B1BF" d="M463.5,221.5c-0.1,1.1-0.1,2.2-0.2,3.4c-1.1-11.3-4.4-21-7.8-26.3c0.1,0,0.3,0,0.4-0.1
						C457.3,200.8,461.6,208.8,463.5,221.5z"/>
					<path fill="#94B1BF" d="M455.4,168.5c0.8,1.6,3,6.9-0.2,14.9c-0.1,0-0.1,0-0.2,0c1.5-3.9,2.5-11.3-0.6-15.2
						C454.8,168.3,455.1,168.4,455.4,168.5z"/>
					<path fill="#94B1BF" d="M441.8,183.2c-0.1,0.1-0.3,0.1-0.4,0.2c-1.4-3-7.7-9.7-13.7-12.6c0.1-0.1,0.3-0.3,0.4-0.4
						C430.8,171.7,438.7,176.6,441.8,183.2z"/>
					<path fill="#94B1BF" d="M412.2,217c15.8-1.5,24.9-14.9,27.3-19.7c0,0.1,0.1,0.1,0.1,0.2c0,0.1,0.1,0.1,0.2,0.2
						c-1.2,2.7-5.6,8.6-11.2,13.4c-5.9,5-13.7,6.5-16.6,6.6C412.1,217.4,412.1,217.2,412.2,217z"/>
				</g>
				<path fill="#E5F6FF" d="M412.2,217c-0.2,1-0.4,1.8-0.5,2.6c-0.7,4.3-1.3,8-1.5,11c-0.2,3.8,0.2,6.4,1.9,7.8
					c0.1,0.1,0.3,0.2,0.6,0.3c-10.5-0.7-19.4-5.1-22.4-8s-4.7-16.2-2.4-19c3.6-4.5,9.5-5,11.4-7.5c3.1-4.1,5.2-12.3,4.9-14.7
					c-0.3-2.4-3.5-7-2.9-11.4c0.5-3.7,0.8-9.1,3.8-12.2c2.3-0.8,5.5-1,11,0.2c6.5,1.4,9.4,3.6,10.5,6.2l0,0
					C423.4,177,414.8,205,412.2,217z"/>
			</g>
			<g>
				
					<ellipse transform="matrix(5.311809e-02 -0.9986 0.9986 5.311809e-02 235.077 630.1213)" fill="#C7B486" cx="449.8" cy="191.1" rx="5.1" ry="4.1"/>
				
					<ellipse transform="matrix(5.311154e-02 -0.9986 0.9986 5.311154e-02 235.7475 630.8249)" fill="#F2EAB1" cx="450.5" cy="191.1" rx="5.1" ry="4.1"/>
				
					<ellipse transform="matrix(5.317237e-02 -0.9986 0.9986 5.317237e-02 235.7215 630.8139)" fill="#FFEB3E" cx="450.5" cy="191.1" rx="3.6" ry="2.9"/>
				
					<ellipse transform="matrix(5.312904e-02 -0.9986 0.9986 5.312904e-02 236.6373 629.9661)" fill="#FFFACC" cx="450.5" cy="190.2" rx="1.7" ry="1.3"/>
				<g id="XMLID_61_">
					<path fill="#C7B486" d="M452.6,191.1c0-1.9-1-3-1.8-3.5c1.5,0.2,2.6,1.8,2.5,3.8c-0.1,1.9-1.3,3.3-2.7,3.5
						C451.7,194.1,452.6,193.3,452.6,191.1z"/>
				</g>
			</g>
			
				<ellipse transform="matrix(-8.446908e-02 -0.9964 0.9964 -8.446908e-02 210.3246 635.2325)" fill="#6F8B99" cx="397" cy="221" rx="9.6" ry="8"/>
			<path fill="#B1DCF2" d="M399.2,215.1c3.4,4.1,2.3,10.5,0.8,12.5c-1.1,1.5-3.2,3.1-5.5,2.4c-2.9-1.3-5.1-4.4-5.5-8.3
				c-0.3-3,0.7-5.8,2.3-7.7C393.1,212.5,396.2,211.5,399.2,215.1z"/>
			
				<ellipse transform="matrix(-8.448678e-02 -0.9964 0.9964 -8.448678e-02 207.8564 633.564)" fill="#6F8B99" cx="395" cy="221.3" rx="6.8" ry="4.7"/>
			
				<ellipse transform="matrix(-8.449925e-02 -0.9964 0.9964 -8.449925e-02 209.5599 634.3331)" fill="#B1DCF2" cx="396.2" cy="220.9" rx="4.3" ry="3"/>
			
				<ellipse transform="matrix(-8.448120e-02 -0.9964 0.9964 -8.448120e-02 269.5776 601.8736)" fill="#6F8B99" cx="411.3" cy="177.1" rx="8.1" ry="6.7"/>
			<path fill="#B1DCF2" d="M413.1,172.1c2.9,3.4,1.9,8.8,0.7,10.5c-0.9,1.2-2.7,2.6-4.7,2c-2.5-1.1-4.3-3.7-4.6-7
				c-0.2-2.5,0.6-4.9,2-6.5C408,170,410.6,169.1,413.1,172.1z"/>
			
				<ellipse transform="matrix(-8.448381e-02 -0.9964 0.9964 -8.448381e-02 267.4329 600.5063)" fill="#6F8B99" cx="409.6" cy="177.4" rx="5.7" ry="4"/>
			
				<ellipse transform="matrix(-8.447930e-02 -0.9964 0.9964 -8.447930e-02 268.8152 601.1841)" fill="#B1DCF2" cx="410.6" cy="177.1" rx="3.6" ry="2.5"/>
			<path fill="#8FC9E6" d="M409.1,171.7c0.2,0,0.3,0,0.5,0c-1.4,0.5-2.7,3.2-2.4,6c0.3,2.9,2.4,5.1,4,5.1c-0.4,0.2-0.8,0.3-1.2,0.4
				c-2.2,0.2-4.2-2.2-4.4-5.4C405.4,174.6,406.9,171.9,409.1,171.7z"/>
			<path fill="#8FC9E6" d="M392.1,221.7c0.4,3.4,2.9,6.1,4.8,6c-0.4,0.2-0.9,0.4-1.4,0.4c-2.6,0.2-5-2.6-5.3-6.4
				c-0.3-3.7,1.5-6.9,4.1-7.2c0.2,0,0.4,0,0.5,0C393.3,215.2,391.8,218.4,392.1,221.7z"/>
			<g id="XMLID_60_">
				<path fill="#8FC9E6" d="M410.3,173.5c1.4-0.1,2.6,1.4,2.8,3.4c0.2,2-0.8,3.7-2.2,3.8c-1,0.1-1.9-0.6-2.4-1.8
					c1.4,1.6,3.2-0.4,3.1-2.4c-0.1-1.8-1-2.9-1.8-2.9C410,173.5,410.2,173.5,410.3,173.5z"/>
				<path fill="#8FC9E6" d="M395.9,216.7c1.6-0.1,3.1,1.6,3.3,4c0.2,2.3-1,4.4-2.6,4.5c-1.1,0.1-2.2-0.8-2.8-2.1
					c1.6,2,3.8-0.5,3.7-2.9c-0.1-2.1-1.2-3.4-2.1-3.4C395.5,216.7,395.7,216.7,395.9,216.7z"/>
			</g>
			<g id="XMLID_59_">
				<path fill="#6F8B99" d="M441.6,188.5c-0.7,3.3-0.8,8-0.2,9.6c-0.9-0.2-1.6-0.4-1.7-0.7c0,0-0.1-0.1-0.1-0.2
					c-0.8-2,0.8-12.8,1.8-13.8c0,0,0.1-0.1,0.2-0.1c0.4-0.3,1.3-0.5,2.3-0.6C443.1,183.5,442.2,185.3,441.6,188.5z"/>
			</g>
		</g>
		<g>
			<g id="XMLID_58_">
				<path fill="#7796A6" d="M432.9,295.6c0.1,2.2-1.6,2.9-3.8,2.8C430.3,297.5,431.6,296.6,432.9,295.6z"/>
				<path fill="#7796A6" d="M416.3,285.5c0-2.1,1.1-2.4,2.1-2.3C417.6,284.1,416.9,284.9,416.3,285.5z"/>
				<path fill="#E5F6FF" d="M429.1,298.4c2.1,0.1,3.9-0.7,3.8-2.8c0.2-0.2,0.4-0.3,0.6-0.5c0.2,1.2-0.3,2.4-0.8,3.3
					c-0.6,1-5.7,7.1-8.4,9.7c-0.6,0.3-1.3,0.3-2.1,0.3c0.1,1.1,1.2,11.2,0,14.8c-1.5,4.4-4.7,6-8.1,5.4c-0.1-0.2-0.2-0.5-0.3-0.7
					c-0.6-0.8-1.6-1-2.2-0.5c-0.1,0.1-0.2,0.1-0.2,0.2c-1.1-0.5-2.2-1.3-3.2-2.2c0.1-0.2,0.1-0.5,0.1-0.8c-0.1-0.9-0.8-1.6-1.7-1.5
					c-0.1,0-0.3,0.1-0.4,0.1c-0.1-0.2-0.3-0.4-0.4-0.6c-0.5-0.8-1-1.7-1.5-2.7c0.3-0.4,0.5-0.9,0.4-1.4c-0.1-0.9-0.8-1.6-1.7-1.5
					l0,0c-0.4-1.1-0.8-2.3-1.2-3.5c0.4-0.3,0.7-0.9,0.6-1.6c-0.1-0.9-0.7-1.5-1.5-1.5c-0.3-1.4-0.6-2.7-0.8-3.9
					c0.5-0.3,0.8-1,0.8-1.7c-0.1-0.7-0.6-1.3-1.2-1.5c-0.2-2-0.1-3.5,0.3-4.2c1.6-2.7,6.4-5.1,7.6-4.8c-0.1-0.9,0.1-2.1,0.4-2.8
					c1-1.1,6.2-5.9,7.7-7.5c1.2-1.4,2.4-1.4,3.3-1.3c-0.1,0.2-0.3,0.4-0.4,0.6c-0.9-0.1-2.1,0.2-2.1,2.3l0,0c0,0.5,0.1,1.2,0.2,1.9
					c0.9,4.1,5.3,8.8,9.5,10.4C427,298.1,428.1,298.4,429.1,298.4z"/>
				<path fill="#E5F6FF" d="M433.5,295.1c-0.2,0.2-0.4,0.3-0.6,0.5c-1.2,1-2.5,2-3.8,2.8c-1,0-2.1-0.3-3.1-0.7
					c-4.2-1.5-8.6-6.3-9.5-10.4c-0.2-0.8-0.2-1.4-0.2-1.9l0,0c0.6-0.6,1.4-1.4,2.1-2.3c0.1-0.2,0.3-0.4,0.4-0.6c1-1.5,2-3.3,2.5-5.3
					c0.7-2.8,0.5-5.8-1.5-16.4c-1.4-7.5-3-15.5-2.9-21.2c0.1-6.5,6.7-6.8,13.7-3.6c4.7,2.1,11.2,8.4,12.5,12.3
					c1.1,3.4-0.5,32-2,37.6C440.2,288.9,437,292.2,433.5,295.1z"/>
			</g>
			<g id="XMLID_57_">
				<path fill="#7796A6" d="M407.5,294.2c0.3,4.6,2.9,14.6,14.7,14.2c0.1,0.9,0.9,7.7,0.5,12.1c-0.6-3.9-3.8-6.7-7.5-9.1
					c-8.8-5.6-9.6-12.4-9.2-17C406.6,294.3,407.2,294.1,407.5,294.2z"/>
			</g>
			<g id="XMLID_56_">
				<path fill="#F2D235" d="M443,248.4c0.1,0.5,0.2,1.4,0.3,2.7c-11.8-8.8-22.4-7.6-26.1-5.2c-0.3-2.3-0.4-4.4-0.4-6.2
					c0.1-6.5,6.7-6.8,13.7-3.6C435.2,238.2,441.8,244.4,443,248.4z"/>
				<path fill="#FFEB3E" d="M443.3,251.1c0.1,1.1,0.1,2.4,0.1,3.8c-8.6-3.8-19.5-3.1-24.9-0.8c-0.5-2.8-1-5.6-1.3-8.2
					C420.9,243.4,431.6,242.3,443.3,251.1z"/>
				<path fill="#8FC9E6" d="M441,286.1c-0.9,2.9-4,6.1-7.5,9c-0.2,0.2-0.4,0.3-0.6,0.5c-1.2,1-2.5,2-3.8,2.8c-1,0-2.1-0.3-3.1-0.7
					c-4.2-1.5-8.6-6.3-9.5-10.4c-0.2-0.8-0.2-1.4-0.2-1.9l0,0c0.6-0.6,1.4-1.4,2.1-2.3c0.1-0.2,0.3-0.4,0.4-0.6c1-1.5,2-3.3,2.5-5.3
					c0.2-0.6,0.3-1.3,0.3-2C423.6,285.7,435,294.3,441,286.1z"/>
			</g>
			<g id="XMLID_55_">
				<path fill="#F2D235" d="M422.7,315.8c0,1.2,0,2.5,0,3.7c-4.3-2.6-11.9-0.1-14.1,2.1c-0.8-1-1.6-2.2-2.1-3.5
					c0-0.1-0.1-0.2-0.1-0.3C408.7,315.8,417.4,312.3,422.7,315.8z"/>
				<path fill="#FFEB3E" d="M422.7,319.4c-0.1,1.4-0.2,2.7-0.5,3.6c-3.2-1.8-8.6,0.3-10.4,1.4c-1.1-0.8-2.2-1.8-3.1-2.9
					C410.8,319.4,418.4,316.8,422.7,319.4z"/>
				<path fill="#F2D235" d="M422.2,323.1v0.1c-0.2,0.6-0.4,1.1-0.7,1.5c-2.8,2.5-6.5,2-9.8-0.3C413.6,323.4,419,321.3,422.2,323.1z"
					/>
				<path fill="#FFFFFF" d="M429.1,298.4c2.1,0.1,3.9-0.7,3.8-2.8c0.2-0.2,0.4-0.3,0.6-0.5c0.2,1.1-0.2,2.2-0.7,3.2l0,0
					c-0.5,0.6-1.5,0.9-3.4,0.9c-5.6-0.1-11.2-5.3-13-9.7c-1.4-3.6-0.7-5.8,0.1-6.4c0.8-0.5,1.6-0.5,2.3-0.4
					c-0.1,0.2-0.3,0.4-0.4,0.6c-0.9-0.1-2.1,0.2-2.1,2.3l0,0c0,0.5,0.1,1.2,0.2,1.9c0.9,4.1,5.3,8.8,9.5,10.4
					C427,298.1,428.1,298.4,429.1,298.4z"/>
				<path fill="#B1DCF2" d="M411.7,324.5c-1.1-0.8-2.2-1.8-3.1-2.9c-0.8-1-1.6-2.2-2.1-3.5c0-0.1-0.1-0.2-0.1-0.3
					c-3-6.7-4.7-17.5-4.1-21.1c-1,0.7-1.8,1.6-2.3,2.4c-0.4,0.6-0.5,2.2-0.3,4.2c0.6,0.2,1.1,0.8,1.2,1.5s-0.2,1.4-0.8,1.7
					c0.2,1.2,0.5,2.6,0.8,3.9c0.7,0,1.4,0.7,1.5,1.5c0.1,0.7-0.2,1.3-0.6,1.6c0.4,1.2,0.8,2.4,1.2,3.5l0,0c0.8-0.1,1.5,0.6,1.7,1.4
					v0.1c0.1,0.6-0.1,1.1-0.4,1.4c0.5,1,1,1.9,1.5,2.7c0.1,0.2,0.3,0.4,0.4,0.6c0.1-0.1,0.3-0.1,0.4-0.1c0.8-0.1,1.6,0.6,1.7,1.5
					c0,0.3,0,0.6-0.1,0.8c1,0.9,2.1,1.7,3.2,2.2c0.1-0.1,0.1-0.2,0.2-0.2c0.7-0.5,1.6-0.3,2.2,0.5c0.2,0.2,0.3,0.4,0.3,0.7
					c3,0.5,5.8-0.7,7.5-3.9C418.7,327.2,415,326.7,411.7,324.5z"/>
			</g>
			<g id="XMLID_54_">
				<path fill="#D9BB2F" d="M422.7,315.8c0,1.2,0,2.5,0,3.7c-0.1-0.1-0.3-0.2-0.4-0.2c-0.6-1.8-1.8-3.4-3.3-4.8
					C420.3,314.6,421.6,315,422.7,315.8z"/>
				<path fill="#E6C732" d="M422.7,319.4c0,0.4,0,0.8-0.1,1.1c-0.1-0.5-0.2-0.9-0.3-1.4C422.4,319.3,422.6,319.4,422.7,319.4z"/>
			</g>
		</g>
		<g>
			<g id="XMLID_53_">
				<path fill="#E5F6FF" d="M512.3,286c4.5,1.1,7.6,5.2,6.3,9c-0.1,0.4-0.5,0.8-1.1,1.2c-0.5-0.4-1.2-0.3-1.8,0.1
					c-0.5,0.3-0.7,0.9-0.6,1.4c-0.8,0.4-1.7,0.8-2.7,1.2c-0.4-0.5-1.1-0.7-1.8-0.6c-0.9,0.2-1.5,1-1.3,1.8c-1.1,0.4-2.2,0.8-3.4,1.2
					c-0.4-0.6-1.3-0.7-2.1-0.4c-0.6,0.3-1,0.9-1,1.4c-1.1,0.4-2.2,0.7-3.3,1.1c-0.4-0.6-1.3-0.7-2-0.3c-0.5,0.3-0.9,0.7-1,1.2
					c-1.3,0.4-2.5,0.7-3.5,1c-0.1-0.1-0.1-0.2-0.2-0.3c-0.6-0.6-1.6-0.5-2.3,0.1c-0.3,0.3-0.4,0.6-0.5,0.9c-0.8,0.2-1.4,0.3-1.9,0.3
					c-4.7,0.5-5.1-9.2-5-13.9c-1.2-0.1-1.7-0.3-2.5-0.5c-1-2.3-3.5-10.3-4.2-13.1c0-0.9,0.7-2,1.4-2.7c3.7-3.2,11.2-6.8,16.4-7.1
					c1-0.1,2.3,0.4,3.1,1.3c2.1,5.6,3.8,10.7,4,12.5c-0.3,0.7-0.8,1.4-1.2,1.9C503.6,284.7,508.7,285,512.3,286z"/>
			</g>
			<g id="XMLID_51_">
				<path fill="#E5F6FF" d="M494.3,269.1c-5.1,0.3-12.7,3.8-16.4,7.1c-0.7-3-2.9-9.3-4.2-11.1c-4.4-6-22.9-13.2-23.1-15.2
					c-0.7-8.3,3.1-17.7,11-20.1c3.9-1.2,19.5,14.2,25.6,21.8C491.2,256.5,493.5,265.7,494.3,269.1z"/>
			</g>
			<g id="XMLID_24_">
				<path fill="#8FC9E6" d="M494.3,269.1c-5.1,0.3-12.7,3.8-16.4,7.1c-0.7-3-2.9-9.3-4.2-11.1c-0.9-1.2-2.2-2.4-3.9-3.6
					c5.6,2,6.2-4.1,9-7c2.8-2.8,7.7-4.3,9.9-0.9C491.7,258.7,493.6,266.1,494.3,269.1z"/>
				<path fill="#FFEB3E" d="M468.1,232.8c1.7,1.3,3.6,2.9,5.6,4.6c-8.6,1.4-16.8,11.7-18.9,15.4c-1-0.5-1.8-1-2.5-1.5
					C452.7,247.4,459.1,235.4,468.1,232.8z"/>
				<path fill="#F2D235" d="M461.7,229.8c1.2-0.4,3.6,0.9,6.4,3c-9,2.6-15.3,14.6-15.8,18.6c-1-0.6-1.6-1.2-1.6-1.5
					C449.9,241.6,453.8,232.2,461.7,229.8z"/>
			</g>
			<g id="XMLID_7_">
				<path fill="#F2D235" d="M512.3,286c2,0.5,3.8,1.6,4.9,3c-1.5-0.8-4-0.8-6.9-0.3c0-0.9,0.2-2.2,1.4-2.9
					C511.9,285.9,512.1,285.9,512.3,286z"/>
				<path fill="#FFEB3E" d="M511.7,285.8c-1.2,0.7-1.5,2-1.4,2.9c-1.6,0.3-3.3,0.7-5,1.3c-0.1-1.4,0.4-4,2.7-4.8
					C509.2,285.3,510.6,285.5,511.7,285.8z"/>
				<path fill="#F2D235" d="M503.7,284.9c1.4,0.1,2.8,0.2,4.2,0.3c-2.3,0.8-2.7,3.4-2.7,4.8c-1.4,0.4-2.9,0.9-4.3,1.4
					C500.2,288.1,502,285.9,503.7,284.9z"/>
				<path fill="#7796A6" d="M501.4,282.8v0.1c-0.3,0.7-0.8,1.4-1.2,1.9c-3.6-0.6-12.5,1-17,8.9c0-0.4,0-0.8,0-1.2
					c-1.2-0.1-1.7-0.3-2.5-0.5c0-0.1-0.1-0.2-0.1-0.4C482.9,286.3,493.8,281,501.4,282.8z"/>
				<path fill="#B1DCF2" d="M517.2,289c-1.5-0.8-4-0.8-6.9-0.3c-1.6,0.3-3.3,0.7-5,1.3c-1.4,0.4-2.9,0.9-4.3,1.4
					c-5.1,1.9-9.7,4.1-11.2,4.9c-2.8,1.5-5.1,3.4-5.8,5.5c0.6,2.3,1.5,4.1,3.1,4.5c-1.2-0.5-2.4-1.7,0.3-4.5
					c0.1-0.1,0.2-0.2,0.3-0.3c-0.2-0.6,0-1.2,0.5-1.7c0.6-0.6,1.5-0.7,2.1-0.3c1-0.6,2.1-1.3,3.3-1.9c-0.1-0.6,0.3-1.3,1-1.6
					c0.7-0.3,1.5-0.2,2,0.2c1.1-0.5,2.3-1,3.5-1.4c0.1-0.5,0.4-1,1-1.3c0.2-0.1,0.3-0.1,0.5-0.2c0.6-0.1,1.1,0,1.5,0.4
					c1.2-0.4,2.5-0.8,3.6-1.1c0.1-0.6,0.6-1,1.3-1.2c0.6-0.2,1.3,0,1.7,0.4c1.3-0.3,2.4-0.5,3.4-0.6c0.1,0,0.1,0,0.2,0
					c0.1-0.2,0.3-0.3,0.4-0.5c0.7-0.5,1.6-0.4,2.1,0.2c0.1,0.1,0.2,0.3,0.2,0.5c1.6,0.4,2.8,1.4,2.8,2.7
					C519.2,292.4,518.5,290.5,517.2,289z"/>
			</g>
			<g id="XMLID_6_">
				<path fill="#8FC9E6" d="M516,291.5c1.6,0.4,2.8,1.4,2.8,2.7c0,0.2-0.1,0.5-0.2,0.7c-0.1,0.4-0.5,0.8-1.1,1.2
					c-0.5-0.4-1.2-0.3-1.8,0.1c-0.5,0.3-0.7,0.9-0.6,1.4c-0.8,0.4-1.7,0.8-2.7,1.2c-0.4-0.5-1.1-0.7-1.8-0.6c-0.9,0.2-1.5,1-1.3,1.8
					c-1.1,0.4-2.2,0.8-3.4,1.2c-0.4-0.6-1.3-0.7-2.1-0.4c-0.6,0.3-1,0.9-1,1.4c-1.1,0.4-2.2,0.7-3.3,1.1c-0.4-0.6-1.3-0.7-2-0.3
					c-0.5,0.3-0.9,0.7-1,1.2c-1.3,0.4-2.5,0.7-3.5,1c-0.1-0.1-0.1-0.2-0.2-0.3c-0.6-0.6-1.6-0.5-2.3,0.1c-0.3,0.3-0.4,0.6-0.5,0.9
					c-0.8,0.2-1.4,0.3-1.9,0.3c-0.4,0-0.7,0-1.1-0.1c-1.2-0.5-2.4-1.7,0.3-4.5c0.1-0.1,0.2-0.2,0.3-0.3c-0.2-0.6,0-1.2,0.5-1.7
					c0.6-0.6,1.5-0.7,2.1-0.3c1-0.6,2.1-1.3,3.3-1.9c-0.1-0.6,0.3-1.3,1-1.6c0.7-0.3,1.5-0.2,2,0.2c1.1-0.5,2.3-1,3.5-1.4
					c0.1-0.5,0.4-1,1-1.3c0.2-0.1,0.3-0.1,0.5-0.2c0.6-0.1,1.1,0,1.5,0.4c1.2-0.4,2.5-0.8,3.6-1.1c0.1-0.6,0.6-1,1.3-1.2
					c0.6-0.2,1.3,0,1.7,0.4c1.3-0.3,2.4-0.5,3.4-0.6c0.1,0,0.1,0,0.2,0c0.1-0.2,0.3-0.3,0.4-0.5c0.7-0.5,1.6-0.4,2.1,0.2
					C515.9,291.2,515.9,291.4,516,291.5z"/>
			</g>
			<g>
				<g id="XMLID_5_">
					<path fill="#7796A6" d="M516,291.5l1.6,4.6c-0.5-0.4-1.2-0.3-1.8,0.1c-0.5,0.3-0.7,0.9-0.6,1.4l-1.9-6.3
						c0.1-0.2,0.3-0.3,0.4-0.5c0.7-0.5,1.6-0.4,2.1,0.2C515.9,291.2,515.9,291.4,516,291.5z"/>
					<path fill="#7796A6" d="M509.7,291.9l2.8,6.9c-0.4-0.5-1.1-0.7-1.8-0.6c-0.9,0.2-1.5,1-1.3,1.8l-2.7-7.4c0.1-0.6,0.6-1,1.3-1.2
						C508.6,291.3,509.3,291.5,509.7,291.9z"/>
					<path fill="#7796A6" d="M503.1,293.8l2.9,7.5c-0.4-0.6-1.3-0.7-2.1-0.4c-0.6,0.3-1,0.9-1,1.4l-2.8-7.5c0.1-0.5,0.4-1,1-1.3
						c0.2-0.1,0.3-0.1,0.5-0.2C502.2,293.3,502.7,293.5,503.1,293.8z"/>
					<path fill="#7796A6" d="M496.6,296.3l3,7.1c-0.4-0.6-1.3-0.7-2-0.3c-0.5,0.3-0.9,0.7-1,1.2l-2.9-6.7c-0.1-0.6,0.3-1.3,1-1.6
						C495.4,295.8,496.2,295.9,496.6,296.3z"/>
					<path fill="#A69679" d="M490.4,299.6l2.7,5.8c-0.1-0.1-0.1-0.2-0.2-0.3c-0.6-0.6-1.6-0.5-2.3,0.1c-0.3,0.3-0.4,0.6-0.5,0.9
						l-2.3-4.5c-0.2-0.6,0-1.2,0.5-1.7C488.9,299.3,489.8,299.1,490.4,299.6z"/>
				</g>
			</g>
		</g>
		<g>
			<g id="XMLID_4_">
				<path fill="#E5F6FF" d="M479.3,194.3c0.4-1.1,0.9-1.9,1.4-2.5c4,0.6,7.8,0.9,12.6,1.7c0,0,0.8,1.3,1.2,2.8
					c1.7-2.5,4.7-6.9,6.8-8c5.8-3.1,8.6-1.9,10.4-0.7c2.8,1.8,3.1,4.6,1.4,5.6c1.6,0.7,2,3.8,0.5,4.8c1.1,1.5,0.9,3,0,4.7
					c1,1.2,1.3,3.7-1.7,4.4c-2-1.4-4.7-1.5-6.8,0.8c-2.1,2.2-7,2-9.4,1.6c-0.3,0.8-0.6,1.7-1.3,2.6c-1.1,0.3-11.9,1.1-15.7,1
					c-0.4-1-0.6-2.2-0.8-3.4C477.2,204.2,477.9,198,479.3,194.3z"/>
				<path fill="#E5F6FF" d="M479.3,194.3c-1.4,3.7-2.1,10-1.2,15.3c-8.2-0.3-20.2-3.8-34.2-12.1c-15.4-9.2-16.3-18.8-13.7-21.6
					c3.3-3.5,7.3-1.9,16.8,5.5C455.9,188.2,468.1,193.5,479.3,194.3z"/>
			</g>
			<g id="XMLID_3_">
				<path fill="#7796A6" d="M514.3,197.4c-0.1,0.2-0.3,0.4-0.5,0.5c-1.4-0.8-3.8-1.4-5.5-1.5C510,195.7,512.8,196.6,514.3,197.4z"/>
				<path fill="#7796A6" d="M514.1,202c-0.1,0.2-0.2,0.4-0.3,0.5c-1.2-0.6-3.6-1.6-5.6-1.7C510.1,200.2,512.2,201.1,514.1,202z"/>
				<path fill="#7796A6" d="M509.7,190.8c0.6,0.2,2.9,1.2,4.1,1.9c-0.1,0.2-0.3,0.3-0.5,0.4c-1.5-0.4-4.3-0.9-5.8-1.3
					C508.2,191.1,509,190.6,509.7,190.8z"/>
				<path fill="#8FC9E6" d="M493.4,193.5c0,0,0.8,1.3,1.2,2.8l0.1-0.1c-0.4,1.9-1.1,9,1.3,13.2h-0.1c-0.3,0.8-0.6,1.7-1.3,2.6h-0.1
					C489.5,204.2,492.1,195.7,493.4,193.5L493.4,193.5z"/>
			</g>
			<g id="XMLID_2_">
				<path fill="#8FC9E6" d="M479.3,194.3c-1.4,3.7-2.1,10-1.2,15.3c-0.9,0-1.8-0.1-2.8-0.2c-2-6.8,0.7-12.7,2.7-15.2
					C478.4,194.2,478.9,194.2,479.3,194.3z"/>
				<path fill="#FFEB3E" d="M439.9,176.3c1.6,1,3.5,2.3,5.7,3.9c-3.9,0.6-10.9,4.6-10.7,10.3c-2-2-3.3-3.9-4.2-5.7
					C432.3,179.5,436.8,177,439.9,176.3z"/>
				<path fill="#F2D235" d="M430.2,175.9c2.3-2.5,5-2.4,9.7,0.4c-3.1,0.7-7.6,3.2-9.3,8.6C428.4,180.7,428.8,177.4,430.2,175.9z"/>
			</g>
		</g>
		<g>
			<path fill="#B1DCF2" d="M490.1,142.3c-1.5,21.1-18.9,35.8-40.5,34.3c-21.5-1.5-37.8-19.8-36.3-40.9s20.2-36.9,41.7-35.3
				C476.5,102,491.6,121.3,490.1,142.3z"/>
			<g id="XMLID_1_">
				<path fill="#8FC9E6" d="M479,120.5c6.4,4.9,9.8,10,11.2,18.3c0,0.1,0,0.2,0,0.4c0.4,23.3-19,39-40.6,37.5c-0.5,0-1-0.1-1.5-0.1
					c-7.6-3.1-13.7-9-17.1-16.4c-2.2-4.8-3.3-10.3-2.9-16c1.1-14.9,11.9-26.7,25.7-29.5c2.7-0.6,5.5-0.7,8.4-0.5
					C468.5,114.5,474.3,116.9,479,120.5z"/>
				<path fill="#E5F6FF" d="M474.1,107.5c3.1,3.5,5.3,9,5,12.9c-4.7-3.6-10.5-5.9-16.9-6.4c-2.9-0.2-5.7,0-8.4,0.5
					c-0.9-5.2-8.8-12.2-18.7-10.4c6-2.9,12.8-4.3,20-3.8C462.4,101,468.4,103.6,474.1,107.5z"/>
				<path fill="#8FC9E6" d="M430.9,160.1c3.4,7.4,9.5,13.3,17.1,16.4c-20.8-2.3-36.3-20.2-34.8-40.7c0.2-2.6,0.6-5.1,1.3-7.5
					C413.4,139.3,416.6,153.2,430.9,160.1z"/>
			</g>
			
				<ellipse transform="matrix(7.076634e-02 -0.9975 0.9975 7.076634e-02 281.8233 594.3211)" fill="#6F8B99" cx="459.9" cy="145.9" rx="29.9" ry="30.1"/>
			
				<ellipse transform="matrix(7.077121e-02 -0.9975 0.9975 7.077121e-02 277.5553 592.1469)" fill="#7796A6" cx="456.6" cy="147.1" rx="24.2" ry="23.2"/>
			<path fill="#B1DCF2" d="M486.6,132c1.7,4.1,2.5,8.7,2.2,13.4c-1.2,16.5-15.5,28.9-32.1,27.7c-10.8-0.8-19.9-7.1-24.5-16
				c4.2,10.2,13.9,17.7,25.7,18.5c16.6,1.2,30.9-11.2,32.1-27.7C490.3,142.3,489.1,136.8,486.6,132z"/>
			
				<ellipse transform="matrix(-0.1397 -0.9902 0.9902 -0.1397 383.7863 608.6456)" fill="#94B1BF" cx="456.3" cy="137.6" rx="17.7" ry="19.3"/>
			
				<ellipse transform="matrix(-0.3475 -0.9377 0.9377 -0.3475 476.5196 602.0022)" fill="#FFFFFF" cx="447.7" cy="135.2" rx="5.2" ry="5.7"/>
		</g>
	</g>
	<g>
		
			<ellipse transform="matrix(-0.717 0.6971 -0.6971 -0.717 905.9321 337.1814)" fill="#FAE4A8" cx="384.5" cy="352.5" rx="27.2" ry="17.8"/>
		
			<ellipse transform="matrix(-0.5623 0.8269 -0.8269 -0.5623 863.2599 338.7942)" fill="#FAE4A8" cx="342" cy="397.9" rx="18.2" ry="17.8"/>
		
			<ellipse transform="matrix(0.4505 0.8928 -0.8928 0.4505 717.8989 44.3813)" fill="#FAE4A8" cx="322.9" cy="605.4" rx="44.1" ry="17.8"/>
		
			<ellipse transform="matrix(0.5301 0.848 -0.848 0.5301 643.1022 -388.5536)" fill="#C8B78B" cx="672.1" cy="385.9" rx="27.2" ry="17.8"/>
		
			<ellipse transform="matrix(-0.471 0.8821 -0.8821 -0.471 1566.0999 320.953)" fill="#C8B78B" cx="686.8" cy="630" rx="23.6" ry="17.8"/>
		<g>
			<circle fill="#C8B78B" cx="511.2" cy="515.1" r="217.2"/>
			<path fill="#FAE4A8" d="M364.2,674.9c81.7,55.7,201.3,30.9,273.2-58.8s69.9-211.9-2.3-279.4c-41.6-28.9-93.4-43.5-147.7-37.5
				c-119.2,13.2-205.2,120.5-192,239.8C301.3,593.2,326.9,640.6,364.2,674.9z"/>
		</g>
		<g>
			<g>
				<path fill="#C8B78B" d="M450.9,517.1c-25.2,0-46.3-18.9-49.1-44c-3-27.1,16.6-51.6,43.7-54.6c1.8-0.2,3.7-0.3,5.5-0.3
					c25.2,0,46.3,18.9,49.1,44c3,27.1-16.6,51.6-43.7,54.6C454.5,517,452.7,517.1,450.9,517.1L450.9,517.1z"/>
				<path fill="#FAE4A8" d="M451,421.1c23.4,0,43.6,17.6,46.2,41.4c2.8,25.5-15.6,48.5-41.1,51.4c-1.7,0.2-3.5,0.3-5.2,0.3
					c-23.4,0-43.6-17.6-46.2-41.4c-2.8-25.5,15.6-48.5,41.1-51.4C447.6,421.2,449.3,421.1,451,421.1 M451,415.3
					c-1.9,0-3.9,0.1-5.8,0.3c-28.7,3.2-49.4,29.1-46.3,57.8c2.9,26.6,25.3,46.6,51.9,46.6c1.9,0,3.9-0.1,5.8-0.3
					c13.9-1.5,26.4-8.4,35.1-19.3s12.7-24.6,11.2-38.5C500,435.3,477.7,415.3,451,415.3L451,415.3z"/>
			</g>
			
				<ellipse transform="matrix(0.6251 -0.7806 0.7806 0.6251 -196.6539 530.4431)" fill="#DDC997" cx="453.8" cy="469.9" rx="46.5" ry="42.8"/>
		</g>
		<g>
			<g>
				<path fill="#C8B78B" d="M663.6,539c-20.1,0-36.9-15.1-39.1-35c-2.4-21.6,13.2-41.1,34.8-43.4c1.5-0.2,2.9-0.2,4.4-0.2
					c20.1,0,36.9,15.1,39.1,35c1.2,10.4-1.8,20.7-8.4,28.9c-6.6,8.2-15.9,13.4-26.4,14.5C666.5,538.9,665,539,663.6,539L663.6,539z"
					/>
				<path fill="#FAE4A8" d="M663.6,463.2c18.3,0,34.1,13.8,36.2,32.5c2.2,20-12.2,38-32.2,40.2c-1.4,0.2-2.7,0.2-4.1,0.2
					c-18.3,0-34.1-13.8-36.2-32.5c-2.2-20,12.2-38,32.2-40.2C661,463.2,662.3,463.2,663.6,463.2 M663.6,457.4
					c-1.6,0-3.1,0.1-4.7,0.3c-11.2,1.2-21.3,6.8-28.3,15.6c-7.1,8.8-10.3,19.8-9,31.1c2.4,21.4,20.4,37.6,42,37.6
					c1.6,0,3.1-0.1,4.7-0.3c11.2-1.2,21.3-6.8,28.3-15.6c7.1-8.8,10.3-19.8,9-31.1C703.2,473.5,685.2,457.4,663.6,457.4L663.6,457.4
					z"/>
			</g>
			
				<ellipse transform="matrix(0.6251 -0.7806 0.7806 0.6251 -141.7507 707.8164)" fill="#DDC997" cx="665.9" cy="501.5" rx="36.5" ry="33.6"/>
		</g>
		<g>
			<g>
				<path fill="#C8B78B" d="M466.7,717.1c-12.7,0-23.4-9.6-24.8-22.2c-1.5-13.7,8.4-26.1,22.1-27.6c0.9-0.1,1.9-0.2,2.8-0.2
					c12.7,0,23.4,9.6,24.8,22.2c1.5,13.7-8.4,26.1-22.1,27.6C468.6,717.1,467.6,717.1,466.7,717.1L466.7,717.1z"/>
				<path fill="#FAE4A8" d="M466.8,670.1c11.1,0,20.7,8.4,21.9,19.7c1.3,12.1-7.4,23-19.5,24.4c-0.8,0.1-1.6,0.1-2.5,0.1
					c-11.1,0-20.7-8.4-21.9-19.7c-1.3-12.1,7.4-23,19.5-24.4C465.1,670.1,466,670.1,466.8,670.1 M466.8,664.3c-1,0-2.1,0.1-3.1,0.2
					c-15.3,1.7-26.3,15.5-24.7,30.8c1.6,14.2,13.5,24.8,27.7,24.8c1,0,2.1-0.1,3.1-0.2c15.3-1.7,26.3-15.5,24.7-30.8
					C492.9,674.9,481,664.3,466.8,664.3L466.8,664.3z"/>
			</g>
			
				<ellipse transform="matrix(0.6251 -0.7806 0.7806 0.6251 -365.6887 625.3159)" fill="#DDC997" cx="468.1" cy="693.3" rx="22.1" ry="20.3"/>
		</g>
		<g>
			<g>
				<path fill="#C8B78B" d="M668.6,451.3c-12.4,0-22.7-9.3-24.1-21.6c-1.5-13.3,8.2-25.3,21.5-26.8c0.9-0.1,1.8-0.1,2.7-0.1
					c12.4,0,22.7,9.3,24.1,21.6c1.5,13.3-8.2,25.3-21.5,26.8C670.4,451.2,669.4,451.3,668.6,451.3L668.6,451.3z"/>
				<path fill="#FAE4A8" d="M668.6,405.6c10.7,0,20,8.1,21.2,19c1.3,11.7-7.2,22.3-18.9,23.6c-0.8,0.1-1.6,0.1-2.4,0.1
					c-10.7,0-20-8.1-21.2-19c-1.3-11.7,7.2-22.3,18.9-23.6C667,405.7,667.8,405.6,668.6,405.6 M668.6,399.8c-1,0-2,0.1-3,0.2
					c-14.9,1.6-25.7,15.1-24,30c1.5,13.8,13.1,24.2,27,24.2c1,0,2-0.1,3-0.2c14.9-1.6,25.7-15.1,24-30
					C694.1,410.2,682.5,399.8,668.6,399.8L668.6,399.8z"/>
			</g>
			
				<ellipse transform="matrix(0.6251 -0.7806 0.7806 0.6251 -83.0092 683.4176)" fill="#DDC997" cx="669.9" cy="428.1" rx="21.4" ry="19.7"/>
		</g>
		<g>
			<g>
				<path fill="#C8B78B" d="M563.1,356.2c-7.6,0-14-5.7-14.8-13.3c-0.4-4,0.7-7.9,3.2-11s6-5.1,10-5.5c0.5-0.1,1.1-0.1,1.7-0.1
					c7.6,0,14,5.7,14.8,13.3c0.4,4-0.7,7.9-3.2,11s-6,5.1-10,5.5C564.3,356.2,563.7,356.2,563.1,356.2L563.1,356.2z"/>
				<path fill="#FAE4A8" d="M563.2,329.2c6.1,0,11.3,4.6,11.9,10.7c0.7,6.6-4,12.5-10.6,13.3c-0.4,0-0.9,0.1-1.3,0.1
					c-6.1,0-11.3-4.6-11.9-10.7c-0.7-6.6,4-12.5,10.6-13.3C562.3,329.3,562.7,329.2,563.2,329.2 M563.2,323.4c-0.7,0-1.3,0-2,0.1
					c-4.7,0.5-9,2.9-12,6.6s-4.3,8.4-3.8,13.1c1,9,8.6,15.9,17.7,15.9c0.7,0,1.3,0,2-0.1c9.8-1.1,16.8-9.9,15.8-19.7
					C579.9,330.3,572.3,323.4,563.2,323.4L563.2,323.4z"/>
			</g>
			
				<ellipse transform="matrix(0.6251 -0.7806 0.7806 0.6251 -55.4608 568.3557)" fill="#DDC997" cx="563.9" cy="341.9" rx="12" ry="11.1"/>
		</g>
		<g>
			<g>
				<path fill="#C8B78B" d="M551.7,698.9c-25.2,0-46.3-18.9-49.1-44c-3-27.1,16.6-51.6,43.7-54.6c1.8-0.2,3.7-0.3,5.5-0.3
					c25.2,0,46.3,18.9,49.1,44c3,27.1-16.6,51.6-43.7,54.6C555.4,698.8,553.5,698.9,551.7,698.9L551.7,698.9z"/>
				<path fill="#FAE4A8" d="M551.8,603c23.4,0,43.6,17.6,46.2,41.4c2.8,25.5-15.6,48.5-41.1,51.4c-1.7,0.2-3.5,0.3-5.2,0.3
					c-23.4,0-43.6-17.6-46.2-41.4c-2.8-25.5,15.6-48.5,41.1-51.4C548.4,603.1,550.1,603,551.8,603 M551.8,597.2
					c-1.9,0-3.9,0.1-5.8,0.3c-13.9,1.5-26.4,8.4-35.1,19.3c-8.7,10.9-12.7,24.6-11.2,38.5c2.9,26.6,25.3,46.6,51.9,46.6
					c1.9,0,3.9-0.1,5.8-0.3c28.7-3.2,49.4-29.1,46.3-57.8C600.8,617.2,578.5,597.2,551.8,597.2L551.8,597.2z"/>
			</g>
			
				<ellipse transform="matrix(0.6251 -0.7806 0.7806 0.6251 -300.8477 677.3002)" fill="#DDC997" cx="554.6" cy="651.8" rx="46.5" ry="42.8"/>
		</g>
		<g>
			<g>
				<path fill="#C8B78B" d="M456.4,658.9c-18.7,0-34.4-14-36.4-32.7c-2.2-20.1,12.3-38.3,32.4-40.5c1.4-0.1,2.7-0.2,4.1-0.2
					c18.7,0,34.4,14,36.4,32.7c2.2,20.1-12.3,38.3-32.4,40.5C459.1,658.8,457.8,658.9,456.4,658.9L456.4,658.9z"/>
				<path fill="#FAE4A8" d="M456.5,587.7c17.4,0,32.3,13.1,34.3,30.8c2.1,19-11.6,36-30.5,38.1c-1.3,0.1-2.6,0.2-3.8,0.2
					c-17.4,0-32.3-13.1-34.3-30.8c-2.1-19,11.6-36,30.5-38.1C454,587.7,455.2,587.7,456.5,587.7 M456.5,583.4
					c-1.4,0-2.9,0.1-4.3,0.2c-21.3,2.4-36.7,21.6-34.3,42.9c2.2,19.7,18.8,34.6,38.6,34.6c1.4,0,2.9-0.1,4.3-0.2
					c10.3-1.1,19.6-6.2,26.1-14.3s9.4-18.2,8.3-28.6C492.9,598.2,476.3,583.4,456.5,583.4L456.5,583.4z"/>
			</g>
			
				<ellipse transform="matrix(0.6251 -0.7806 0.7806 0.6251 -315.0742 591.919)" fill="#DDC997" cx="458.6" cy="623.9" rx="34.5" ry="31.8"/>
		</g>
	</g>
	<g>
		<path fill="#C8B78B" d="M528.7,306.2c0,0,27.4-4.1,51.5,2.9c-9.9-3.8-12.7-3.9-12.7-3.9s-11.5-4.1-40.8-1.5L528.7,306.2z"/>
		<g>
			
				<ellipse transform="matrix(-0.1099 -0.9939 0.9939 -0.1099 280.7739 862.2477)" fill="#C8B78B" stroke="#FAE4A8" stroke-width="1.7506" stroke-miterlimit="10" cx="526.5" cy="305.4" rx="3.3" ry="6.5"/>
			
				<ellipse transform="matrix(-0.1099 -0.9939 0.9939 -0.1099 280.2805 862.8156)" fill="#DDC997" cx="526.5" cy="305.9" rx="2" ry="5.2"/>
		</g>
		<g>
			<path fill="#BBC9C5" d="M521.8,293.7c1.1,5.8,1.8,10,2.3,12.1c0.4,1.2,5,1.4,5.8-0.9c-0.1-0.7-0.9-4.8-2.2-11.7
				c-1.1-0.2-2.2-0.3-3.4-0.2C523.4,293.2,522.5,293.4,521.8,293.7z"/>
			<path fill="#92A8A1" d="M529.9,304.9c-0.1-0.7-0.9-4.8-2.2-11.7c-0.5-0.1-0.9-0.2-1.4-0.2l2.4,13.1c0.1,0,0.2-0.1,0.2-0.1
				C529.3,305.8,529.7,305.4,529.9,304.9z"/>
		</g>
	</g>
</g>
</svg>
