<?xml version="1.0" encoding="utf-8"?>
<!-- Generator: Adobe Illustrator 18.1.1, SVG Export Plug-In . SVG Version: 6.00 Build 0)  -->
<svg version="1.1" id="Layer_1" xmlns="http://www.w3.org/2000/svg" xmlns:xlink="http://www.w3.org/1999/xlink" x="0px" y="0px"
	 viewBox="0 0 500 500" enable-background="new 0 0 500 500" xml:space="preserve">
<rect display="none" width="500" height="500"/>
<g opacity="0.4">
	<g>
		<g>
			<path fill="#FFFFFF" d="M55.5,48.7c0.3,0.3,0.5,0.5,0.8,0.8c0.5,0.5,1.4-0.1,1.7-0.6c0.4-0.5,0.7-1.3,0.1-1.8
				c-0.3-0.3-0.5-0.5-0.8-0.8c-0.5-0.5-1.4,0.1-1.7,0.6C55.2,47.5,54.9,48.2,55.5,48.7L55.5,48.7z"/>
		</g>
	</g>
	<g>
		<g>
			<path fill="#FFFFFF" d="M368,61.8c-0.7,0.6-1.2,1.6-0.7,2.5c0.4,0.8,1.3,0.9,2,0.5c0.8-0.4,1.4-1.5,1.2-2.4
				c-0.1-0.7-0.7-1.2-1.4-1.2c-0.7,0.1-1.4,0.7-1.5,1.4c-0.2,0.6,0,1.3,0.8,1.3c1.5,0,2.8,1.3,2.9,2.8c0.3-0.6,0.7-1.2,1-1.8
				c-0.4,0.2-0.9,0.1-1.2-0.1c-1.1-0.8-3,1.6-1.8,2.4c1.1,0.7,2.4,0.7,3.5,0c0.6-0.4,1-1.1,1-1.8c-0.2-2.3-2.2-4-4.5-4
				c-0.3,0.9-0.5,1.8-0.8,2.7c1-0.1-0.2-0.1-0.2-0.1c0.5-0.5,0.9-0.9,1.4-1.4c-0.4-0.2-0.5,0.2-0.5,1.1c0.5-0.4,1-1.3,0.6-1.9
				C369.2,61.2,368.4,61.4,368,61.8L368,61.8z"/>
		</g>
	</g>
	<g>
		<g>
			<path fill="#FFFFFF" d="M403.2,442.5c1.3,0,2.4-2.7,0.8-2.7C402.7,439.8,401.5,442.5,403.2,442.5L403.2,442.5z"/>
		</g>
	</g>
	<g>
		<g>
			<path fill="#FFFFFF" d="M236,356.9c1.3,0,2.4-2.7,0.8-2.7C235.5,354.2,234.3,356.9,236,356.9L236,356.9z"/>
		</g>
	</g>
	<g>
		<g>
			<path fill="#FFFFFF" d="M471.1,195.3c1.3,0,2.4-2.7,0.8-2.7C470.7,192.6,469.5,195.3,471.1,195.3L471.1,195.3z"/>
		</g>
	</g>
	<g>
		<g>
			<path fill="#FFFFFF" d="M112.8,317.7c1.3,0,2.4-2.7,0.8-2.7C112.3,315,111.1,317.7,112.8,317.7L112.8,317.7z"/>
		</g>
	</g>
	<g>
		<g>
			<path fill="#FFFFFF" d="M110.4,317.7c1.3,0,2.4-2.7,0.8-2.7C109.9,315,108.7,317.7,110.4,317.7L110.4,317.7z"/>
		</g>
	</g>
	<g>
		<g>
			<path fill="#FFFFFF" d="M305.6,174.5c1.3,0,2.4-2.7,0.8-2.7C305.1,171.8,303.9,174.5,305.6,174.5L305.6,174.5z"/>
		</g>
	</g>
	<g>
		<g>
			<path fill="#FFFFFF" d="M340,142.5c1.3,0,2.4-2.7,0.8-2.7C339.5,139.8,338.3,142.5,340,142.5L340,142.5z"/>
		</g>
	</g>
</g>
<g opacity="0.6">
	<g>
		<g>
			<path fill="#FFFFFF" d="M59.7,124.1c1.1,0.4,2.1,0.8,3.2,1.2c0.5,0.2,1.2-0.3,1.5-0.7c0.5-0.7,0.8-1.5,0.6-2.4
				c-0.2-0.7-0.7-1.3-1.4-1.4c-0.7-0.1-1.4,0.4-1.7,1c-0.2,0.4-0.4,1.5,0.3,1.6c0.2,0,0.3,0.1,0.4,0.2l0.1,0.1c0,0.2,0,0.2,0,0
				s0.1-0.3,0.2-0.4c0.5-0.2,1-0.5,1.5-0.7c-1.1-0.4-2.1-0.8-3.2-1.2C59.8,121.1,58.3,123.6,59.7,124.1L59.7,124.1z"/>
		</g>
	</g>
	<g>
		<g>
			<path fill="#FFFFFF" d="M177,161.3c-0.4,0.3,0.1,0.2,0.3,0.4c0.1,0.1,0.2,0.2,0.3,0.3c0,0,0.1,0.1,0,0.2c0-0.2,0-0.3,0,0
				c0.3-0.4,0.6-0.8,0.9-1.2c0.1,0-0.2-0.1-0.4-0.1c-0.2-0.1-0.4-0.3-0.5-0.5c-0.2-0.2-0.3-0.4-0.3-0.7c0-0.1-0.1-0.3,0-0.2
				c0,0.1,0,0,0-0.1c0,0.2-0.1,0.3-0.2,0.4c-0.3,0.1-0.6,0.3-0.9,0.4c0.5,0,0.9,0.1,1.2,0.5c0.2,0.2,0.3,0.4,0.3,0.6
				c0,0.1,0.1,0.3,0.1,0.3c-0.1-0.1,0.4-0.1,0-0.1c0,0-0.3,0.1-0.4,0.1c-0.4,0-0.8-0.1-1.1-0.4c-0.4-0.5-1.1-0.4-1.6,0.1
				c-0.4,0.3-1,1.3-0.6,1.9c1.4,1.7,3.8,1.3,5.1-0.3c1.4-1.6,1.1-4.3-1.1-5.2c-2.4-1-3.9,2.1-3,4.1c0.8,1.8,3.6,2.6,4.6,0.6
				c0.5-1.1,0.3-2.4-0.6-3.1c-1-0.8-2.2-0.5-3.2,0.2c-0.5,0.4-0.9,1.3-0.6,1.9C175.7,162.1,176.5,161.7,177,161.3L177,161.3z"/>
		</g>
	</g>
	<g>
		<g>
			<path fill="#FFFFFF" d="M473.5,21.7c1.3,0,2.4-2.7,0.8-2.7C473.1,19,471.9,21.7,473.5,21.7L473.5,21.7z"/>
		</g>
	</g>
	<g>
		<g>
			<path fill="#FFFFFF" d="M416.6,286.3c0.8-0.5,1.5-1,2.3-1.6c0.6-0.4,1.7-2.1,0.5-2.4c-1.8-0.5-3.7-1-5.5-1.5
				c-0.7-0.2-1.4,0.5-1.7,1c-0.7,1.3-0.4,3.1,1.2,3.6c1.2,0.4,2.8-2.2,1.4-2.6c-0.1,0-0.6-0.3-0.5-0.4c-0.6,0.3-1.1,0.7-1.7,1
				c1.8,0.5,3.7,1,5.5,1.5c0.2-0.8,0.3-1.6,0.5-2.4c-0.8,0.5-1.5,1-2.3,1.6c-0.6,0.4-1.1,1.1-1,1.8
				C415.4,286.6,416.1,286.7,416.6,286.3L416.6,286.3z"/>
		</g>
	</g>
	<g>
		<g>
			<path fill="#FFFFFF" d="M64.8,445.4c-0.3,0-0.5,0-0.8,0c-1.3,0-2.4,2.7-0.8,2.7c0.3,0,0.5,0,0.8,0
				C65.2,448.1,66.4,445.4,64.8,445.4L64.8,445.4z"/>
		</g>
	</g>
	<g>
		<g>
			<path fill="#FFFFFF" d="M196.1,469.6c0.8,0.8,1.6,1.6,2.4,2.4c0.5,0.5,1.4-0.1,1.7-0.6c0.4-0.5,0.7-1.3,0.1-1.8
				c-0.8-0.8-1.6-1.6-2.4-2.4c-0.5-0.5-1.4,0.1-1.7,0.6C195.9,468.3,195.6,469.1,196.1,469.6L196.1,469.6z"/>
		</g>
	</g>
	<g>
		<g>
			<path fill="#FFFFFF" d="M202.4,471.3c1.3,0,2.4-2.7,0.8-2.7C201.9,468.6,200.7,471.3,202.4,471.3L202.4,471.3z"/>
		</g>
	</g>
	<g>
		<g>
			<path fill="#FFFFFF" d="M393.6,435.3c1.3,0,2.4-2.7,0.8-2.7C393.1,432.6,391.9,435.3,393.6,435.3L393.6,435.3z"/>
		</g>
	</g>
	<g>
		<g>
			<path fill="#FFFFFF" d="M300,252.1c1.3,0,2.4-2.7,0.8-2.7C299.5,249.4,298.3,252.1,300,252.1L300,252.1z"/>
		</g>
	</g>
	<g>
		<g>
			<path fill="#FFFFFF" d="M235.2,43.3c1.3,0,2.4-2.7,0.8-2.7C234.7,40.6,233.5,43.3,235.2,43.3L235.2,43.3z"/>
		</g>
	</g>
	<g>
		<g>
			<path fill="#FFFFFF" d="M35.2,268.1c1.3,0,2.4-2.7,0.8-2.7C34.7,265.4,33.5,268.1,35.2,268.1L35.2,268.1z"/>
		</g>
	</g>
	<g>
		<g>
			<path fill="#FFFFFF" d="M34.9,268.8c1,0.3,2.1,0.1,3-0.4c0.6-0.3,1.2-1.1,1-1.8c-0.2-0.7-0.4-1.4-0.6-2.1
				c-0.4-1.6-2.7,0.2-2.4,1.4c0.2,0.7,0.4,1.4,0.6,2.1c0.3-0.6,0.7-1.2,1-1.8c-0.4,0.2-0.8,0.2-1.3,0.1
				C35.1,265.8,33.5,268.3,34.9,268.8L34.9,268.8z"/>
		</g>
	</g>
	<g>
		<g>
			<path fill="#FFFFFF" d="M300.8,163.3c1.3,0,2.4-2.7,0.8-2.7C300.3,160.6,299.1,163.3,300.8,163.3L300.8,163.3z"/>
		</g>
	</g>
	<g>
		<g>
			<path fill="#FFFFFF" d="M362.1,435.2c0.5,0.3,1.1,0.5,1.6,0.8c0.2,0.1,0.7-0.1,0.9-0.2c0.3-0.2,0.6-0.5,0.8-0.8
				c0.3-0.6,0.3-1.3-0.3-1.6c-0.5-0.3-1.1-0.5-1.6-0.8c-0.2-0.1-0.7,0.1-0.9,0.2c-0.3,0.2-0.6,0.5-0.8,0.8
				C361.4,434.2,361.4,434.9,362.1,435.2L362.1,435.2z"/>
		</g>
	</g>
	<g>
		<g>
			<path fill="#FFFFFF" d="M45.6,259.3c1.3,0,2.4-2.7,0.8-2.7C45.1,256.6,43.9,259.3,45.6,259.3L45.6,259.3z"/>
		</g>
	</g>
</g>
</svg>
